<svg width="100" height="100" viewBox="0 0 100 100" fill="none" xmlns="http://www.w3.org/2000/svg">
<path d="M74.637 46C74.4472 45.9998 74.259 45.9666 74.0806 45.9018C73.7366 45.7758 73.4447 45.5381 73.2519 45.2265C73.059 44.915 72.9763 44.5478 73.017 44.1836L74.277 32.5819H64.6388C64.3415 32.5823 64.0498 32.5018 63.7948 32.3489C63.5399 32.196 63.3314 31.9766 63.1917 31.7141C63.0521 31.4517 62.9866 31.1562 63.0023 30.8593C63.0179 30.5624 63.1142 30.2754 63.2806 30.0292L76.1915 10.7202C76.3957 10.418 76.695 10.1927 77.0418 10.08C77.3887 9.96737 77.7633 9.97382 78.106 10.0983C78.4356 10.2207 78.7169 10.4459 78.9085 10.7406C79.1001 11.0353 79.1916 11.3839 79.1697 11.7347L77.9097 23.4183H87.5478C87.8451 23.4178 88.1369 23.4984 88.3918 23.6513C88.6468 23.8041 88.8553 24.0236 88.9949 24.286C89.1345 24.5485 89.2 24.844 89.1844 25.1409C89.1687 25.4377 89.0725 25.7247 88.906 25.971L75.9951 45.28C75.845 45.5021 75.6427 45.6839 75.4059 45.8094C75.169 45.935 74.905 46.0004 74.637 46Z" fill="#F9A750"/>
<path d="M23.5625 23C25.8787 23 27.75 24.8752 27.75 27.1875V39.75H19.375V27.1875C19.375 24.8752 21.2502 23 23.5625 23ZM48.6875 23C51.0037 23 52.875 24.8752 52.875 27.1875V39.75H44.5V27.1875C44.5 24.8752 46.3713 23 48.6875 23ZM57.0625 43.9375C59.3787 43.9375 61.25 45.8088 61.25 48.125C61.25 48.426 61.2107 48.7269 61.1584 49.0148C51.5402 51.6713 44.5 60.6482 44.5 71.1562C44.5 72.648 44.6439 74.1006 44.9056 75.5138C43.4662 76.1812 41.9221 76.6916 40.3125 77.0187V90H31.9375V77.0187C22.3808 74.9642 15.1875 66.6285 15.1875 56.5V52.3125C12.8752 52.3125 11 50.4412 11 48.125C11 45.8088 12.8752 43.9375 15.1875 43.9375H57.0625Z" fill="#F9A750"/>
<path d="M87 71.5C87 81.7184 78.7184 90 68.5 90C58.2816 90 50 81.7184 50 71.5C50 61.2816 58.2816 53 68.5 53C78.7184 53 87 61.2816 87 71.5ZM70.2344 74.1521V59.3594C70.2344 58.4019 69.4611 57.625 68.5 57.625C67.5389 57.625 66.7656 58.4019 66.7656 59.3594V74.1521C65.0674 74.8314 63.875 76.4936 63.875 78.4375C63.875 80.9885 65.949 83.0625 68.5 83.0625C71.051 83.0625 73.125 80.9885 73.125 78.4375C73.125 76.4936 71.9326 74.8314 70.2344 74.1521ZM60.4062 65.7188C61.6854 65.7188 62.7188 64.6854 62.7188 63.4062C62.7188 62.1271 61.6854 61.0938 60.4062 61.0938C59.1271 61.0938 58.0938 62.1271 58.0938 63.4062C58.0938 64.6854 59.1271 65.7188 60.4062 65.7188ZM56.9375 69.1875C55.6606 69.1875 54.625 70.2209 54.625 71.5C54.625 72.7791 55.6606 73.8125 56.9375 73.8125C58.2166 73.8125 59.25 72.7791 59.25 71.5C59.25 70.2209 58.2166 69.1875 56.9375 69.1875ZM80.0625 73.8125C81.3416 73.8125 82.375 72.7791 82.375 71.5C82.375 70.2209 81.3416 69.1875 80.0625 69.1875C78.7834 69.1875 77.75 70.2209 77.75 71.5C77.75 72.7791 78.7834 73.8125 80.0625 73.8125ZM76.5938 61.0938C75.3146 61.0938 74.2812 62.1271 74.2812 63.4062C74.2812 64.6854 75.3146 65.7188 76.5938 65.7188C77.8729 65.7188 78.9062 64.6854 78.9062 63.4062C78.9062 62.1271 77.8729 61.0938 76.5938 61.0938Z" fill="#F9A750"/>
</svg>
