<svg width="270" height="270" viewBox="0 0 270 270" fill="none" xmlns="http://www.w3.org/2000/svg">
<circle cx="135" cy="135" r="133.5" fill="#393C4C" stroke="#F9A750" stroke-width="3"/>
<rect x="133.5" width="3" height="270" fill="#F9A750"/>
<rect y="136.5" width="3" height="270" transform="rotate(-90 0 136.5)" fill="#F9A750"/>
<rect x="18.8365" y="203.799" width="3" height="71.2167" transform="rotate(-120 18.8365 203.799)" fill="#F9A750"/>
<rect x="191.042" y="104.376" width="3" height="71.1545" transform="rotate(-120 191.042 104.376)" fill="#F9A750"/>
<rect x="68.7991" y="252.663" width="3" height="71.2837" transform="rotate(-150 68.7991 252.663)" fill="#F9A750"/>
<rect x="168.706" y="79.6191" width="3" height="70.1856" transform="rotate(-150 168.706 79.6191)" fill="#F9A750"/>
<rect x="165.724" y="191.216" width="3" height="70.9536" transform="rotate(-30 165.724 191.216)" fill="#F9A750"/>
<rect x="66.201" y="18.8365" width="3" height="69.9715" transform="rotate(-30 66.201 18.8365)" fill="#F9A750"/>
<rect x="189.642" y="168.28" width="3" height="71.0385" transform="rotate(-60 189.642 168.28)" fill="#F9A750"/>
<rect x="17.3367" y="68.7991" width="3" height="70.9355" transform="rotate(-60 17.3367 68.7991)" fill="#F9A750"/>
<path d="M151.593 111.656L148.521 96.824C148.441 96.472 148.513 96.16 148.737 95.888C148.977 95.616 149.273 95.48 149.625 95.48H150.321C150.721 95.48 151.065 95.608 151.353 95.864C151.641 96.12 151.817 96.44 151.881 96.824L153.873 109.448C153.873 109.464 153.881 109.472 153.897 109.472C153.929 109.472 153.945 109.464 153.945 109.448L155.865 96.824C155.929 96.44 156.105 96.12 156.393 95.864C156.681 95.608 157.025 95.48 157.425 95.48H158.865C159.265 95.48 159.609 95.608 159.897 95.864C160.185 96.12 160.361 96.44 160.425 96.824L162.369 109.448C162.369 109.464 162.377 109.472 162.393 109.472C162.409 109.472 162.417 109.464 162.417 109.448L164.409 96.824C164.473 96.44 164.649 96.12 164.937 95.864C165.225 95.608 165.569 95.48 165.969 95.48H166.569C166.921 95.48 167.209 95.616 167.433 95.888C167.657 96.16 167.737 96.472 167.673 96.824L164.601 111.656C164.521 112.04 164.329 112.36 164.025 112.616C163.721 112.872 163.369 113 162.969 113H161.697C161.297 113 160.945 112.872 160.641 112.616C160.353 112.36 160.177 112.04 160.113 111.656L158.121 99.032C158.121 99.016 158.113 99.008 158.097 99.008C158.081 99.008 158.073 99.016 158.073 99.032L156.081 111.656C156.017 112.04 155.833 112.36 155.529 112.616C155.241 112.872 154.897 113 154.497 113H153.225C152.825 113 152.473 112.872 152.169 112.616C151.865 112.36 151.673 112.04 151.593 111.656Z" fill="#F2F2F2"/>
<path d="M106.92 173.704L101.952 158.776C101.84 158.456 101.88 158.16 102.072 157.888C102.264 157.616 102.528 157.48 102.864 157.48H103.728C104.128 157.48 104.496 157.608 104.832 157.864C105.168 158.104 105.384 158.416 105.48 158.8L109.152 171.688C109.152 171.704 109.16 171.712 109.176 171.712C109.192 171.712 109.2 171.704 109.2 171.688L112.92 158.776C113.032 158.392 113.248 158.08 113.568 157.84C113.904 157.6 114.272 157.48 114.672 157.48H115.44C115.776 157.48 116.04 157.616 116.232 157.888C116.424 158.16 116.464 158.456 116.352 158.776L111.384 173.704C111.256 174.088 111.024 174.4 110.688 174.64C110.368 174.88 110 175 109.584 175H108.72C108.32 175 107.952 174.88 107.616 174.64C107.296 174.4 107.064 174.088 106.92 173.704Z" fill="#F2F2F2"/>
<path d="M109.08 98.456L106.968 105.992C106.952 106.04 106.96 106.088 106.992 106.136C107.024 106.184 107.064 106.208 107.112 106.208H111.096C111.144 106.208 111.184 106.184 111.216 106.136C111.248 106.088 111.256 106.04 111.24 105.992L109.128 98.456C109.128 98.44 109.12 98.432 109.104 98.432C109.088 98.432 109.08 98.44 109.08 98.456ZM102.864 113C102.528 113 102.264 112.864 102.072 112.592C101.88 112.32 101.84 112.024 101.952 111.704L106.92 96.776C107.064 96.392 107.296 96.08 107.616 95.84C107.952 95.6 108.32 95.48 108.72 95.48H109.584C110 95.48 110.368 95.6 110.688 95.84C111.024 96.08 111.256 96.392 111.384 96.776L116.352 111.704C116.464 112.024 116.424 112.32 116.232 112.592C116.04 112.864 115.776 113 115.44 113H114.576C114.192 113 113.832 112.88 113.496 112.64C113.176 112.384 112.96 112.064 112.848 111.68L112.08 108.968C112.064 108.84 111.976 108.776 111.816 108.776H106.392C106.248 108.776 106.16 108.84 106.128 108.968L105.36 111.68C105.264 112.064 105.048 112.384 104.712 112.64C104.392 112.88 104.032 113 103.632 113H102.864Z" fill="#F2F2F2"/>
<path d="M151.586 175C151.234 175 150.922 174.872 150.65 174.616C150.394 174.36 150.266 174.048 150.266 173.68C150.266 173.312 150.394 173 150.65 172.744C150.922 172.488 151.234 172.36 151.586 172.36H153.194C153.21 172.36 153.218 172.352 153.218 172.336C153.218 172.304 153.21 172.288 153.194 172.288C151.402 170.752 150.506 168.496 150.506 165.52C150.506 162.912 151.218 160.88 152.642 159.424C154.082 157.968 156.034 157.24 158.498 157.24C160.962 157.24 162.906 157.968 164.33 159.424C165.77 160.88 166.49 162.912 166.49 165.52C166.49 168.496 165.594 170.752 163.802 172.288C163.786 172.288 163.778 172.304 163.778 172.336C163.778 172.352 163.786 172.36 163.802 172.36H165.41C165.762 172.36 166.066 172.488 166.322 172.744C166.594 173 166.73 173.312 166.73 173.68C166.73 174.048 166.594 174.36 166.322 174.616C166.066 174.872 165.762 175 165.41 175H160.73C160.362 175 160.05 174.872 159.794 174.616C159.538 174.36 159.41 174.048 159.41 173.68C159.41 173.024 159.818 172.424 160.634 171.88C161.354 171.4 161.938 170.664 162.386 169.672C162.834 168.664 163.058 167.496 163.058 166.168C163.058 162.056 161.538 160 158.498 160C155.458 160 153.938 162.056 153.938 166.168C153.938 167.496 154.162 168.664 154.61 169.672C155.058 170.664 155.642 171.4 156.362 171.88C157.178 172.424 157.586 173.024 157.586 173.68C157.586 174.048 157.458 174.36 157.202 174.616C156.946 174.872 156.634 175 156.266 175H151.586Z" fill="#F2F2F2"/>
<path d="M142.081 124.087V126.733C142.081 126.781 142.108 126.811 142.162 126.823C142.45 126.865 142.774 126.886 143.134 126.886C143.728 126.886 144.181 126.757 144.493 126.499C144.811 126.241 144.97 125.872 144.97 125.392C144.97 124.912 144.814 124.549 144.502 124.303C144.196 124.051 143.74 123.925 143.134 123.925C142.81 123.925 142.486 123.949 142.162 123.997C142.108 124.009 142.081 124.039 142.081 124.087ZM141.973 129.892C141.907 129.964 141.823 130 141.721 130C141.619 130 141.532 129.964 141.46 129.892C141.394 129.82 141.361 129.736 141.361 129.64V123.988C141.361 123.844 141.409 123.718 141.505 123.61C141.601 123.496 141.721 123.43 141.865 123.412C142.327 123.364 142.768 123.34 143.188 123.34C144.004 123.34 144.622 123.514 145.042 123.862C145.468 124.204 145.681 124.696 145.681 125.338C145.681 126.034 145.468 126.562 145.042 126.922C144.616 127.282 143.998 127.462 143.188 127.462C142.864 127.462 142.522 127.447 142.162 127.417C142.108 127.417 142.081 127.438 142.081 127.48V129.64C142.081 129.736 142.045 129.82 141.973 129.892ZM149.758 127.66C149.758 126.4 149.278 125.77 148.318 125.77C147.358 125.77 146.878 126.4 146.878 127.66C146.878 128.92 147.358 129.55 148.318 129.55C149.278 129.55 149.758 128.92 149.758 127.66ZM149.893 129.451C149.515 129.877 148.99 130.09 148.318 130.09C147.646 130.09 147.121 129.877 146.743 129.451C146.365 129.025 146.176 128.428 146.176 127.66C146.176 126.892 146.365 126.295 146.743 125.869C147.121 125.443 147.646 125.23 148.318 125.23C148.99 125.23 149.515 125.443 149.893 125.869C150.271 126.295 150.46 126.892 150.46 127.66C150.46 128.428 150.271 129.025 149.893 129.451ZM151.449 126.04C151.371 126.04 151.305 126.016 151.251 125.968C151.203 125.914 151.179 125.848 151.179 125.77C151.179 125.692 151.203 125.629 151.251 125.581C151.305 125.527 151.371 125.5 151.449 125.5H152.106C152.16 125.5 152.187 125.473 152.187 125.419V124.132C152.187 124.036 152.22 123.955 152.286 123.889C152.352 123.823 152.433 123.79 152.529 123.79C152.625 123.79 152.706 123.823 152.772 123.889C152.838 123.955 152.871 124.036 152.871 124.132V125.419C152.871 125.473 152.898 125.5 152.952 125.5H154.302C154.38 125.5 154.443 125.527 154.491 125.581C154.545 125.629 154.572 125.692 154.572 125.77C154.572 125.848 154.545 125.914 154.491 125.968C154.443 126.016 154.38 126.04 154.302 126.04H152.952C152.898 126.04 152.871 126.067 152.871 126.121V128.497C152.871 128.929 152.928 129.214 153.042 129.352C153.156 129.484 153.375 129.55 153.699 129.55C153.891 129.55 154.05 129.535 154.176 129.505C154.242 129.493 154.302 129.508 154.356 129.55C154.416 129.586 154.446 129.637 154.446 129.703C154.446 129.787 154.419 129.862 154.365 129.928C154.317 129.994 154.254 130.033 154.176 130.045C154.02 130.075 153.822 130.09 153.582 130.09C153.054 130.09 152.688 129.982 152.484 129.766C152.286 129.544 152.187 129.142 152.187 128.56V126.121C152.187 126.067 152.16 126.04 152.106 126.04H151.449ZM157.589 125.752C156.755 125.752 156.299 126.247 156.221 127.237C156.221 127.285 156.248 127.309 156.302 127.309H158.723C158.771 127.309 158.795 127.285 158.795 127.237C158.759 126.247 158.357 125.752 157.589 125.752ZM157.778 130.09C157.04 130.09 156.479 129.889 156.095 129.487C155.711 129.079 155.519 128.47 155.519 127.66C155.519 126.826 155.702 126.214 156.068 125.824C156.44 125.428 156.947 125.23 157.589 125.23C158.771 125.23 159.398 125.929 159.47 127.327C159.476 127.471 159.425 127.594 159.317 127.696C159.215 127.792 159.092 127.84 158.948 127.84H156.284C156.236 127.84 156.212 127.867 156.212 127.921C156.266 129.019 156.809 129.568 157.841 129.568C158.183 129.568 158.534 129.505 158.894 129.379C158.96 129.355 159.023 129.364 159.083 129.406C159.143 129.442 159.173 129.496 159.173 129.568C159.173 129.772 159.08 129.898 158.894 129.946C158.51 130.042 158.138 130.09 157.778 130.09ZM161.139 129.901C161.073 129.967 160.992 130 160.896 130C160.8 130 160.719 129.967 160.653 129.901C160.587 129.835 160.554 129.754 160.554 129.658V125.644C160.554 125.554 160.584 125.479 160.644 125.419C160.71 125.353 160.788 125.32 160.878 125.32C160.968 125.32 161.046 125.353 161.112 125.419C161.178 125.479 161.211 125.554 161.211 125.644V126.013C161.211 126.019 161.214 126.022 161.22 126.022C161.226 126.022 161.232 126.019 161.238 126.013C161.67 125.491 162.183 125.23 162.777 125.23C163.323 125.23 163.719 125.383 163.965 125.689C164.211 125.995 164.334 126.502 164.334 127.21V129.658C164.334 129.754 164.301 129.835 164.235 129.901C164.175 129.967 164.097 130 164.001 130C163.905 130 163.824 129.967 163.758 129.901C163.692 129.835 163.659 129.754 163.659 129.658V127.3C163.659 126.706 163.578 126.304 163.416 126.094C163.254 125.878 162.981 125.77 162.597 125.77C162.285 125.77 161.982 125.917 161.688 126.211C161.394 126.499 161.247 126.796 161.247 127.102V129.658C161.247 129.754 161.211 129.835 161.139 129.901ZM167.533 130.09C166.825 130.09 166.279 129.886 165.895 129.478C165.517 129.064 165.328 128.458 165.328 127.66C165.328 126.868 165.511 126.265 165.877 125.851C166.249 125.437 166.771 125.23 167.443 125.23C167.755 125.23 168.085 125.263 168.433 125.329C168.517 125.347 168.586 125.392 168.64 125.464C168.7 125.53 168.73 125.608 168.73 125.698C168.73 125.77 168.697 125.827 168.631 125.869C168.571 125.911 168.505 125.923 168.433 125.905C168.127 125.827 167.812 125.788 167.488 125.788C166.528 125.788 166.048 126.412 166.048 127.66C166.048 128.308 166.174 128.782 166.426 129.082C166.678 129.382 167.062 129.532 167.578 129.532C167.914 129.532 168.22 129.487 168.496 129.397C168.562 129.373 168.625 129.382 168.685 129.424C168.745 129.466 168.775 129.523 168.775 129.595C168.775 129.685 168.748 129.766 168.694 129.838C168.64 129.91 168.568 129.958 168.478 129.982C168.196 130.054 167.881 130.09 167.533 130.09ZM171.053 129.892C170.987 129.964 170.903 130 170.801 130C170.699 130 170.612 129.964 170.54 129.892C170.474 129.82 170.441 129.736 170.441 129.64V125.68C170.441 125.584 170.474 125.5 170.54 125.428C170.612 125.356 170.699 125.32 170.801 125.32C170.903 125.32 170.987 125.356 171.053 125.428C171.125 125.5 171.161 125.584 171.161 125.68V129.64C171.161 129.736 171.125 129.82 171.053 129.892ZM171.053 124.114C170.987 124.18 170.903 124.213 170.801 124.213C170.699 124.213 170.612 124.18 170.54 124.114C170.474 124.042 170.441 123.955 170.441 123.853V123.61C170.441 123.514 170.474 123.43 170.54 123.358C170.612 123.286 170.699 123.25 170.801 123.25C170.903 123.25 170.987 123.286 171.053 123.358C171.125 123.43 171.161 123.514 171.161 123.61V123.853C171.161 123.955 171.125 124.042 171.053 124.114ZM175.135 127.525C174.541 127.525 174.091 127.621 173.785 127.813C173.485 128.005 173.335 128.275 173.335 128.623C173.335 128.893 173.41 129.112 173.56 129.28C173.716 129.442 173.92 129.523 174.172 129.523C174.604 129.523 174.961 129.379 175.243 129.091C175.531 128.803 175.675 128.422 175.675 127.948V127.606C175.675 127.552 175.648 127.525 175.594 127.525H175.135ZM174.028 130.09C173.62 130.09 173.287 129.961 173.029 129.703C172.771 129.445 172.642 129.103 172.642 128.677C172.642 128.179 172.84 127.78 173.236 127.48C173.632 127.18 174.265 127.03 175.135 127.03H175.594C175.648 127.03 175.675 127.006 175.675 126.958V126.787C175.675 126.421 175.591 126.166 175.423 126.022C175.255 125.872 174.958 125.797 174.532 125.797C174.118 125.797 173.671 125.875 173.191 126.031C173.119 126.055 173.053 126.046 172.993 126.004C172.933 125.962 172.903 125.902 172.903 125.824C172.903 125.614 173.002 125.479 173.2 125.419C173.644 125.293 174.088 125.23 174.532 125.23C175.222 125.23 175.699 125.356 175.963 125.608C176.233 125.86 176.368 126.313 176.368 126.967V129.676C176.368 129.766 176.335 129.844 176.269 129.91C176.209 129.97 176.134 130 176.044 130C175.954 130 175.876 129.97 175.81 129.91C175.744 129.844 175.711 129.766 175.711 129.676L175.702 129.208C175.702 129.202 175.699 129.199 175.693 129.199C175.681 129.199 175.675 129.205 175.675 129.217C175.321 129.799 174.772 130.09 174.028 130.09Z" fill="#F2F2F2"/>
<path d="M98.7923 141.042C98.7083 141.042 98.6363 141.012 98.5763 140.952C98.5163 140.892 98.4863 140.82 98.4863 140.736C98.4863 140.652 98.5163 140.58 98.5763 140.52C98.6363 140.46 98.7083 140.43 98.7923 140.43H102.806C102.89 140.43 102.962 140.46 103.022 140.52C103.082 140.58 103.112 140.652 103.112 140.736C103.112 140.82 103.082 140.892 103.022 140.952C102.962 141.012 102.89 141.042 102.806 141.042H101.24C101.186 141.042 101.159 141.069 101.159 141.123V146.64C101.159 146.736 101.123 146.82 101.051 146.892C100.985 146.964 100.901 147 100.799 147C100.697 147 100.61 146.964 100.538 146.892C100.472 146.82 100.439 146.736 100.439 146.64V141.123C100.439 141.069 100.412 141.042 100.358 141.042H98.7923ZM105.272 142.752C104.438 142.752 103.982 143.247 103.904 144.237C103.904 144.285 103.931 144.309 103.985 144.309H106.406C106.454 144.309 106.478 144.285 106.478 144.237C106.442 143.247 106.04 142.752 105.272 142.752ZM105.461 147.09C104.723 147.09 104.162 146.889 103.778 146.487C103.394 146.079 103.202 145.47 103.202 144.66C103.202 143.826 103.385 143.214 103.751 142.824C104.123 142.428 104.63 142.23 105.272 142.23C106.454 142.23 107.081 142.929 107.153 144.327C107.159 144.471 107.108 144.594 107 144.696C106.898 144.792 106.775 144.84 106.631 144.84H103.967C103.919 144.84 103.895 144.867 103.895 144.921C103.949 146.019 104.492 146.568 105.524 146.568C105.866 146.568 106.217 146.505 106.577 146.379C106.643 146.355 106.706 146.364 106.766 146.406C106.826 146.442 106.856 146.496 106.856 146.568C106.856 146.772 106.763 146.898 106.577 146.946C106.193 147.042 105.821 147.09 105.461 147.09ZM108.822 146.901C108.756 146.967 108.675 147 108.579 147C108.483 147 108.402 146.967 108.336 146.901C108.27 146.835 108.237 146.754 108.237 146.658V142.644C108.237 142.554 108.267 142.479 108.327 142.419C108.393 142.353 108.471 142.32 108.561 142.32C108.651 142.32 108.729 142.353 108.795 142.419C108.861 142.479 108.894 142.554 108.894 142.644V143.013C108.894 143.019 108.897 143.022 108.903 143.022C108.909 143.022 108.915 143.019 108.921 143.013C109.353 142.491 109.866 142.23 110.46 142.23C111.006 142.23 111.402 142.383 111.648 142.689C111.894 142.995 112.017 143.502 112.017 144.21V146.658C112.017 146.754 111.984 146.835 111.918 146.901C111.858 146.967 111.78 147 111.684 147C111.588 147 111.507 146.967 111.441 146.901C111.375 146.835 111.342 146.754 111.342 146.658V144.3C111.342 143.706 111.261 143.304 111.099 143.094C110.937 142.878 110.664 142.77 110.28 142.77C109.968 142.77 109.665 142.917 109.371 143.211C109.077 143.499 108.93 143.796 108.93 144.102V146.658C108.93 146.754 108.894 146.835 108.822 146.901ZM114.81 144.903C114.228 144.765 113.811 144.588 113.559 144.372C113.313 144.15 113.19 143.865 113.19 143.517C113.19 143.121 113.337 142.809 113.631 142.581C113.931 142.347 114.357 142.23 114.909 142.23C115.323 142.23 115.734 142.284 116.142 142.392C116.328 142.44 116.421 142.563 116.421 142.761C116.421 142.833 116.394 142.887 116.34 142.923C116.286 142.959 116.223 142.968 116.151 142.95C115.755 142.83 115.359 142.77 114.963 142.77C114.243 142.77 113.883 143.001 113.883 143.463C113.883 143.667 113.955 143.838 114.099 143.976C114.243 144.108 114.504 144.216 114.882 144.3C115.53 144.444 115.974 144.627 116.214 144.849C116.46 145.071 116.583 145.389 116.583 145.803C116.583 146.205 116.427 146.52 116.115 146.748C115.809 146.976 115.374 147.09 114.81 147.09C114.372 147.09 113.955 147.024 113.559 146.892C113.373 146.832 113.28 146.703 113.28 146.505C113.28 146.439 113.31 146.388 113.37 146.352C113.43 146.31 113.493 146.301 113.559 146.325C113.949 146.475 114.348 146.55 114.756 146.55C115.512 146.55 115.89 146.301 115.89 145.803C115.89 145.587 115.812 145.407 115.656 145.263C115.506 145.119 115.224 144.999 114.81 144.903ZM118.771 146.892C118.705 146.964 118.621 147 118.519 147C118.417 147 118.33 146.964 118.258 146.892C118.192 146.82 118.159 146.736 118.159 146.64V142.68C118.159 142.584 118.192 142.5 118.258 142.428C118.33 142.356 118.417 142.32 118.519 142.32C118.621 142.32 118.705 142.356 118.771 142.428C118.843 142.5 118.879 142.584 118.879 142.68V146.64C118.879 146.736 118.843 146.82 118.771 146.892ZM118.771 141.114C118.705 141.18 118.621 141.213 118.519 141.213C118.417 141.213 118.33 141.18 118.258 141.114C118.192 141.042 118.159 140.955 118.159 140.853V140.61C118.159 140.514 118.192 140.43 118.258 140.358C118.33 140.286 118.417 140.25 118.519 140.25C118.621 140.25 118.705 140.286 118.771 140.358C118.843 140.43 118.879 140.514 118.879 140.61V140.853C118.879 140.955 118.843 141.042 118.771 141.114ZM123.852 144.66C123.852 143.4 123.372 142.77 122.412 142.77C121.452 142.77 120.972 143.4 120.972 144.66C120.972 145.92 121.452 146.55 122.412 146.55C123.372 146.55 123.852 145.92 123.852 144.66ZM123.987 146.451C123.609 146.877 123.084 147.09 122.412 147.09C121.74 147.09 121.215 146.877 120.837 146.451C120.459 146.025 120.27 145.428 120.27 144.66C120.27 143.892 120.459 143.295 120.837 142.869C121.215 142.443 121.74 142.23 122.412 142.23C123.084 142.23 123.609 142.443 123.987 142.869C124.365 143.295 124.554 143.892 124.554 144.66C124.554 145.428 124.365 146.025 123.987 146.451ZM122.628 140.565C122.802 140.313 123.039 140.187 123.339 140.187C123.429 140.187 123.492 140.229 123.528 140.313C123.57 140.397 123.561 140.472 123.501 140.538L122.754 141.429C122.61 141.603 122.424 141.69 122.196 141.69C122.124 141.69 122.07 141.66 122.034 141.6C122.004 141.534 122.01 141.471 122.052 141.411L122.628 140.565ZM126.171 146.901C126.105 146.967 126.024 147 125.928 147C125.832 147 125.751 146.967 125.685 146.901C125.619 146.835 125.586 146.754 125.586 146.658V142.644C125.586 142.554 125.616 142.479 125.676 142.419C125.742 142.353 125.82 142.32 125.91 142.32C126 142.32 126.078 142.353 126.144 142.419C126.21 142.479 126.243 142.554 126.243 142.644V143.013C126.243 143.019 126.246 143.022 126.252 143.022C126.258 143.022 126.264 143.019 126.27 143.013C126.702 142.491 127.215 142.23 127.809 142.23C128.355 142.23 128.751 142.383 128.997 142.689C129.243 142.995 129.366 143.502 129.366 144.21V146.658C129.366 146.754 129.333 146.835 129.267 146.901C129.207 146.967 129.129 147 129.033 147C128.937 147 128.856 146.967 128.79 146.901C128.724 146.835 128.691 146.754 128.691 146.658V144.3C128.691 143.706 128.61 143.304 128.448 143.094C128.286 142.878 128.013 142.77 127.629 142.77C127.317 142.77 127.014 142.917 126.72 143.211C126.426 143.499 126.279 143.796 126.279 144.102V146.658C126.279 146.754 126.243 146.835 126.171 146.901Z" fill="#F2F2F2"/>
<path d="M86.692 128.892C86.62 128.964 86.53 129 86.422 129C86.314 129 86.221 128.964 86.143 128.892C86.071 128.814 86.035 128.721 86.035 128.613V122.817C86.035 122.709 86.071 122.619 86.143 122.547C86.221 122.469 86.314 122.43 86.422 122.43C86.53 122.43 86.62 122.469 86.692 122.547C86.77 122.619 86.809 122.709 86.809 122.817V128.613C86.809 128.721 86.77 128.814 86.692 128.892ZM89.1077 128.901C89.0417 128.967 88.9607 129 88.8647 129C88.7687 129 88.6877 128.967 88.6217 128.901C88.5557 128.835 88.5227 128.754 88.5227 128.658V124.644C88.5227 124.554 88.5527 124.479 88.6127 124.419C88.6787 124.353 88.7567 124.32 88.8467 124.32C88.9367 124.32 89.0147 124.353 89.0807 124.419C89.1467 124.479 89.1797 124.554 89.1797 124.644V125.013C89.1797 125.019 89.1827 125.022 89.1887 125.022C89.1947 125.022 89.2007 125.019 89.2067 125.013C89.6387 124.491 90.1517 124.23 90.7457 124.23C91.2917 124.23 91.6877 124.383 91.9337 124.689C92.1797 124.995 92.3027 125.502 92.3027 126.21V128.658C92.3027 128.754 92.2697 128.835 92.2037 128.901C92.1437 128.967 92.0657 129 91.9697 129C91.8737 129 91.7927 128.967 91.7267 128.901C91.6607 128.835 91.6277 128.754 91.6277 128.658V126.3C91.6277 125.706 91.5467 125.304 91.3847 125.094C91.2227 124.878 90.9497 124.77 90.5657 124.77C90.2537 124.77 89.9507 124.917 89.6567 125.211C89.3627 125.499 89.2157 125.796 89.2157 126.102V128.658C89.2157 128.754 89.1797 128.835 89.1077 128.901ZM93.4807 125.04C93.4027 125.04 93.3367 125.016 93.2827 124.968C93.2347 124.914 93.2107 124.848 93.2107 124.77C93.2107 124.692 93.2347 124.629 93.2827 124.581C93.3367 124.527 93.4027 124.5 93.4807 124.5H94.1377C94.1917 124.5 94.2187 124.473 94.2187 124.419V123.132C94.2187 123.036 94.2517 122.955 94.3177 122.889C94.3837 122.823 94.4647 122.79 94.5607 122.79C94.6567 122.79 94.7377 122.823 94.8037 122.889C94.8697 122.955 94.9027 123.036 94.9027 123.132V124.419C94.9027 124.473 94.9297 124.5 94.9837 124.5H96.3337C96.4117 124.5 96.4747 124.527 96.5227 124.581C96.5767 124.629 96.6037 124.692 96.6037 124.77C96.6037 124.848 96.5767 124.914 96.5227 124.968C96.4747 125.016 96.4117 125.04 96.3337 125.04H94.9837C94.9297 125.04 94.9027 125.067 94.9027 125.121V127.497C94.9027 127.929 94.9597 128.214 95.0737 128.352C95.1877 128.484 95.4067 128.55 95.7307 128.55C95.9227 128.55 96.0817 128.535 96.2077 128.505C96.2737 128.493 96.3337 128.508 96.3877 128.55C96.4477 128.586 96.4777 128.637 96.4777 128.703C96.4777 128.787 96.4507 128.862 96.3967 128.928C96.3487 128.994 96.2857 129.033 96.2077 129.045C96.0517 129.075 95.8537 129.09 95.6137 129.09C95.0857 129.09 94.7197 128.982 94.5157 128.766C94.3177 128.544 94.2187 128.142 94.2187 127.56V125.121C94.2187 125.067 94.1917 125.04 94.1377 125.04H93.4807ZM99.6204 124.752C98.7864 124.752 98.3304 125.247 98.2524 126.237C98.2524 126.285 98.2794 126.309 98.3334 126.309H100.754C100.802 126.309 100.826 126.285 100.826 126.237C100.79 125.247 100.388 124.752 99.6204 124.752ZM99.8094 129.09C99.0714 129.09 98.5104 128.889 98.1264 128.487C97.7424 128.079 97.5504 127.47 97.5504 126.66C97.5504 125.826 97.7334 125.214 98.0994 124.824C98.4714 124.428 98.9784 124.23 99.6204 124.23C100.802 124.23 101.429 124.929 101.501 126.327C101.507 126.471 101.456 126.594 101.348 126.696C101.246 126.792 101.123 126.84 100.979 126.84H98.3154C98.2674 126.84 98.2434 126.867 98.2434 126.921C98.2974 128.019 98.8404 128.568 99.8724 128.568C100.214 128.568 100.565 128.505 100.925 128.379C100.991 128.355 101.054 128.364 101.114 128.406C101.174 128.442 101.204 128.496 101.204 128.568C101.204 128.772 101.111 128.898 100.925 128.946C100.541 129.042 100.169 129.09 99.8094 129.09ZM103.17 128.901C103.104 128.967 103.023 129 102.927 129C102.831 129 102.75 128.967 102.684 128.901C102.618 128.835 102.585 128.754 102.585 128.658V124.644C102.585 124.554 102.615 124.479 102.675 124.419C102.741 124.353 102.819 124.32 102.909 124.32C102.999 124.32 103.077 124.353 103.143 124.419C103.209 124.479 103.242 124.554 103.242 124.644V125.013C103.242 125.019 103.245 125.022 103.251 125.022C103.257 125.022 103.263 125.019 103.269 125.013C103.701 124.491 104.214 124.23 104.808 124.23C105.354 124.23 105.75 124.383 105.996 124.689C106.242 124.995 106.365 125.502 106.365 126.21V128.658C106.365 128.754 106.332 128.835 106.266 128.901C106.206 128.967 106.128 129 106.032 129C105.936 129 105.855 128.967 105.789 128.901C105.723 128.835 105.69 128.754 105.69 128.658V126.3C105.69 125.706 105.609 125.304 105.447 125.094C105.285 124.878 105.012 124.77 104.628 124.77C104.316 124.77 104.013 124.917 103.719 125.211C103.425 125.499 103.278 125.796 103.278 126.102V128.658C103.278 128.754 103.242 128.835 103.17 128.901ZM109.159 126.903C108.577 126.765 108.16 126.588 107.908 126.372C107.662 126.15 107.539 125.865 107.539 125.517C107.539 125.121 107.686 124.809 107.98 124.581C108.28 124.347 108.706 124.23 109.258 124.23C109.672 124.23 110.083 124.284 110.491 124.392C110.677 124.44 110.77 124.563 110.77 124.761C110.77 124.833 110.743 124.887 110.689 124.923C110.635 124.959 110.572 124.968 110.5 124.95C110.104 124.83 109.708 124.77 109.312 124.77C108.592 124.77 108.232 125.001 108.232 125.463C108.232 125.667 108.304 125.838 108.448 125.976C108.592 126.108 108.853 126.216 109.231 126.3C109.879 126.444 110.323 126.627 110.563 126.849C110.809 127.071 110.932 127.389 110.932 127.803C110.932 128.205 110.776 128.52 110.464 128.748C110.158 128.976 109.723 129.09 109.159 129.09C108.721 129.09 108.304 129.024 107.908 128.892C107.722 128.832 107.629 128.703 107.629 128.505C107.629 128.439 107.659 128.388 107.719 128.352C107.779 128.31 107.842 128.301 107.908 128.325C108.298 128.475 108.697 128.55 109.105 128.55C109.861 128.55 110.239 128.301 110.239 127.803C110.239 127.587 110.161 127.407 110.005 127.263C109.855 127.119 109.573 126.999 109.159 126.903ZM113.12 128.892C113.054 128.964 112.97 129 112.868 129C112.766 129 112.679 128.964 112.607 128.892C112.541 128.82 112.508 128.736 112.508 128.64V124.68C112.508 124.584 112.541 124.5 112.607 124.428C112.679 124.356 112.766 124.32 112.868 124.32C112.97 124.32 113.054 124.356 113.12 124.428C113.192 124.5 113.228 124.584 113.228 124.68V128.64C113.228 128.736 113.192 128.82 113.12 128.892ZM113.12 123.114C113.054 123.18 112.97 123.213 112.868 123.213C112.766 123.213 112.679 123.18 112.607 123.114C112.541 123.042 112.508 122.955 112.508 122.853V122.61C112.508 122.514 112.541 122.43 112.607 122.358C112.679 122.286 112.766 122.25 112.868 122.25C112.97 122.25 113.054 122.286 113.12 122.358C113.192 122.43 113.228 122.514 113.228 122.61V122.853C113.228 122.955 113.192 123.042 113.12 123.114ZM116.698 124.77C115.798 124.77 115.348 125.4 115.348 126.66C115.348 127.284 115.465 127.755 115.699 128.073C115.939 128.391 116.272 128.55 116.698 128.55C117.046 128.55 117.358 128.43 117.634 128.19C117.91 127.944 118.048 127.665 118.048 127.353V125.967C118.048 125.661 117.91 125.385 117.634 125.139C117.364 124.893 117.052 124.77 116.698 124.77ZM116.554 129.09C115.996 129.09 115.54 128.874 115.186 128.442C114.838 128.004 114.664 127.41 114.664 126.66C114.664 125.886 114.832 125.289 115.168 124.869C115.51 124.443 115.972 124.23 116.554 124.23C117.142 124.23 117.631 124.461 118.021 124.923C118.027 124.929 118.033 124.932 118.039 124.932C118.045 124.932 118.048 124.929 118.048 124.923V122.592C118.048 122.496 118.081 122.415 118.147 122.349C118.219 122.283 118.303 122.25 118.399 122.25C118.495 122.25 118.576 122.283 118.642 122.349C118.708 122.415 118.741 122.496 118.741 122.592V128.676C118.741 128.766 118.708 128.844 118.642 128.91C118.582 128.97 118.507 129 118.417 129C118.327 129 118.249 128.97 118.183 128.91C118.117 128.844 118.084 128.766 118.084 128.676V128.343C118.084 128.337 118.081 128.334 118.075 128.334C118.069 128.334 118.063 128.337 118.057 128.343C117.655 128.841 117.154 129.09 116.554 129.09ZM122.405 126.525C121.811 126.525 121.361 126.621 121.055 126.813C120.755 127.005 120.605 127.275 120.605 127.623C120.605 127.893 120.68 128.112 120.83 128.28C120.986 128.442 121.19 128.523 121.442 128.523C121.874 128.523 122.231 128.379 122.513 128.091C122.801 127.803 122.945 127.422 122.945 126.948V126.606C122.945 126.552 122.918 126.525 122.864 126.525H122.405ZM121.298 129.09C120.89 129.09 120.557 128.961 120.299 128.703C120.041 128.445 119.912 128.103 119.912 127.677C119.912 127.179 120.11 126.78 120.506 126.48C120.902 126.18 121.535 126.03 122.405 126.03H122.864C122.918 126.03 122.945 126.006 122.945 125.958V125.787C122.945 125.421 122.861 125.166 122.693 125.022C122.525 124.872 122.228 124.797 121.802 124.797C121.388 124.797 120.941 124.875 120.461 125.031C120.389 125.055 120.323 125.046 120.263 125.004C120.203 124.962 120.173 124.902 120.173 124.824C120.173 124.614 120.272 124.479 120.47 124.419C120.914 124.293 121.358 124.23 121.802 124.23C122.492 124.23 122.969 124.356 123.233 124.608C123.503 124.86 123.638 125.313 123.638 125.967V128.676C123.638 128.766 123.605 128.844 123.539 128.91C123.479 128.97 123.404 129 123.314 129C123.224 129 123.146 128.97 123.08 128.91C123.014 128.844 122.981 128.766 122.981 128.676L122.972 128.208C122.972 128.202 122.969 128.199 122.963 128.199C122.951 128.199 122.945 128.205 122.945 128.217C122.591 128.799 122.042 129.09 121.298 129.09ZM126.709 124.77C125.809 124.77 125.359 125.4 125.359 126.66C125.359 127.284 125.476 127.755 125.71 128.073C125.95 128.391 126.283 128.55 126.709 128.55C127.057 128.55 127.369 128.43 127.645 128.19C127.921 127.944 128.059 127.665 128.059 127.353V125.967C128.059 125.661 127.921 125.385 127.645 125.139C127.375 124.893 127.063 124.77 126.709 124.77ZM126.565 129.09C126.007 129.09 125.551 128.874 125.197 128.442C124.849 128.004 124.675 127.41 124.675 126.66C124.675 125.886 124.843 125.289 125.179 124.869C125.521 124.443 125.983 124.23 126.565 124.23C127.153 124.23 127.642 124.461 128.032 124.923C128.038 124.929 128.044 124.932 128.05 124.932C128.056 124.932 128.059 124.929 128.059 124.923V122.592C128.059 122.496 128.092 122.415 128.158 122.349C128.23 122.283 128.314 122.25 128.41 122.25C128.506 122.25 128.587 122.283 128.653 122.349C128.719 122.415 128.752 122.496 128.752 122.592V128.676C128.752 128.766 128.719 128.844 128.653 128.91C128.593 128.97 128.518 129 128.428 129C128.338 129 128.26 128.97 128.194 128.91C128.128 128.844 128.095 128.766 128.095 128.676V128.343C128.095 128.337 128.092 128.334 128.086 128.334C128.08 128.334 128.074 128.337 128.068 128.343C127.666 128.841 127.165 129.09 126.565 129.09Z" fill="#F2F2F2"/>
<path d="M23.256 152.47C23.3773 152.47 23.4683 152.518 23.529 152.613C23.5897 152.7 23.6027 152.799 23.568 152.912L19.811 163.403C19.7417 163.594 19.6247 163.745 19.46 163.858C19.2953 163.979 19.1133 164.04 18.914 164.04C18.7147 164.04 18.5283 163.984 18.355 163.871C18.1903 163.758 18.0733 163.607 18.004 163.416L16.054 158.125C16.028 158.056 15.976 158.021 15.898 158.021H14.949C14.845 158.021 14.7583 157.986 14.689 157.917C14.6197 157.839 14.585 157.748 14.585 157.644C14.585 157.54 14.6197 157.453 14.689 157.384C14.7583 157.315 14.845 157.28 14.949 157.28H16.08C16.2967 157.28 16.496 157.345 16.678 157.475C16.86 157.605 16.9857 157.774 17.055 157.982L18.914 163.442C18.914 163.451 18.9183 163.455 18.927 163.455C18.9443 163.455 18.953 163.451 18.953 163.442L22.632 152.912C22.736 152.617 22.944 152.47 23.256 152.47ZM27.7776 164.82C27.4309 164.82 27.1492 164.703 26.9326 164.469C25.4852 162.952 24.7616 161.098 24.7616 158.905C24.7616 156.712 25.4852 154.858 26.9326 153.341C27.1492 153.107 27.4309 152.99 27.7776 152.99C27.8642 152.99 27.9249 153.033 27.9596 153.12C28.0029 153.207 27.9899 153.285 27.9206 153.354C26.4819 154.871 25.7626 156.721 25.7626 158.905C25.7626 161.089 26.4819 162.939 27.9206 164.456C27.9812 164.525 27.9942 164.603 27.9596 164.69C27.9249 164.777 27.8642 164.82 27.7776 164.82ZM30.8913 162.363L29.0713 154.03C29.0453 153.891 29.0713 153.77 29.1493 153.666C29.2359 153.562 29.3486 153.51 29.4873 153.51C29.6433 153.51 29.7776 153.562 29.8903 153.666C30.0116 153.761 30.0896 153.883 30.1243 154.03L31.6713 161.869C31.6713 161.878 31.6756 161.882 31.6843 161.882C31.6929 161.882 31.6973 161.878 31.6973 161.869L33.2963 154.173C33.3309 153.982 33.4219 153.826 33.5693 153.705C33.7253 153.575 33.8986 153.51 34.0893 153.51C34.2886 153.51 34.4663 153.575 34.6223 153.705C34.7783 153.826 34.8779 153.982 34.9213 154.173L36.5203 161.869C36.5203 161.878 36.5246 161.882 36.5333 161.882C36.5419 161.882 36.5463 161.878 36.5463 161.869L38.0933 154.017C38.1193 153.87 38.1886 153.748 38.3013 153.653C38.4139 153.558 38.5483 153.51 38.7043 153.51C38.8343 153.51 38.9426 153.562 39.0293 153.666C39.1159 153.77 39.1463 153.887 39.1203 154.017L37.2873 162.363C37.2439 162.554 37.1486 162.71 37.0013 162.831C36.8539 162.944 36.6849 163 36.4943 163C36.3036 163 36.1303 162.944 35.9743 162.831C35.8269 162.71 35.7359 162.554 35.7013 162.363L34.1023 154.641C34.1023 154.632 34.0979 154.628 34.0893 154.628C34.0806 154.628 34.0763 154.632 34.0763 154.641L32.4773 162.363C32.4339 162.554 32.3386 162.71 32.1913 162.831C32.0439 162.944 31.8749 163 31.6843 163C31.4936 163 31.3203 162.944 31.1643 162.831C31.0169 162.71 30.9259 162.554 30.8913 162.363ZM46.6636 159.035C46.5336 159.165 46.3733 159.23 46.1826 159.23C45.992 159.23 45.8273 159.165 45.6886 159.035C45.5586 158.896 45.4936 158.732 45.4936 158.541V158.099C45.4936 157.908 45.5586 157.748 45.6886 157.618C45.8273 157.479 45.992 157.41 46.1826 157.41C46.3733 157.41 46.5336 157.479 46.6636 157.618C46.8023 157.748 46.8716 157.908 46.8716 158.099V158.541C46.8716 158.732 46.8023 158.896 46.6636 159.035ZM53.8136 163C53.701 163 53.6013 162.961 53.5146 162.883C53.4366 162.805 53.3976 162.705 53.3976 162.584C53.3976 162.463 53.4366 162.363 53.5146 162.285C53.6013 162.198 53.701 162.155 53.8136 162.155H55.3216C55.3303 162.155 55.3346 162.151 55.3346 162.142C55.3346 162.125 55.3303 162.116 55.3216 162.116C54.1516 161.249 53.5666 159.876 53.5666 157.995C53.5666 156.539 53.935 155.408 54.6716 154.602C55.4083 153.787 56.4136 153.38 57.6876 153.38C58.9616 153.38 59.967 153.787 60.7036 154.602C61.4403 155.408 61.8086 156.539 61.8086 157.995C61.8086 159.876 61.2236 161.249 60.0536 162.116C60.045 162.116 60.0406 162.125 60.0406 162.142C60.0406 162.151 60.045 162.155 60.0536 162.155H61.5616C61.6743 162.155 61.7696 162.198 61.8476 162.285C61.9343 162.363 61.9776 162.463 61.9776 162.584C61.9776 162.705 61.9343 162.805 61.8476 162.883C61.7696 162.961 61.6743 163 61.5616 163H58.7146C58.5933 163 58.4936 162.961 58.4156 162.883C58.3376 162.805 58.2986 162.705 58.2986 162.584C58.2986 162.324 58.4373 162.142 58.7146 162.038C59.33 161.804 59.8196 161.345 60.1836 160.66C60.5563 159.975 60.7426 159.143 60.7426 158.164C60.7426 156.89 60.4783 155.919 59.9496 155.252C59.421 154.585 58.667 154.251 57.6876 154.251C56.7083 154.251 55.9543 154.585 55.4256 155.252C54.897 155.919 54.6326 156.89 54.6326 158.164C54.6326 159.143 54.8146 159.975 55.1786 160.66C55.5513 161.345 56.0453 161.804 56.6606 162.038C56.938 162.142 57.0766 162.324 57.0766 162.584C57.0766 162.705 57.0376 162.805 56.9596 162.883C56.8816 162.961 56.782 163 56.6606 163H53.8136ZM63.5315 164.82C63.4362 164.82 63.3712 164.777 63.3365 164.69C63.3019 164.603 63.3192 164.525 63.3885 164.456C64.8272 162.939 65.5465 161.089 65.5465 158.905C65.5465 156.721 64.8272 154.871 63.3885 153.354C63.3279 153.285 63.3149 153.207 63.3495 153.12C63.3842 153.033 63.4449 152.99 63.5315 152.99C63.8695 152.99 64.1512 153.107 64.3765 153.341C65.0785 154.078 65.6159 154.923 65.9885 155.876C66.3612 156.821 66.5475 157.83 66.5475 158.905C66.5475 159.98 66.3612 160.994 65.9885 161.947C65.6159 162.892 65.0785 163.732 64.3765 164.469C64.1512 164.703 63.8695 164.82 63.5315 164.82Z" fill="#F2F2F2"/>
<path d="M31.256 102.47C31.3773 102.47 31.4683 102.518 31.529 102.613C31.5897 102.7 31.6027 102.799 31.568 102.912L27.811 113.403C27.7417 113.594 27.6247 113.745 27.46 113.858C27.2953 113.979 27.1133 114.04 26.914 114.04C26.7147 114.04 26.5283 113.984 26.355 113.871C26.1903 113.758 26.0733 113.607 26.004 113.416L24.054 108.125C24.028 108.056 23.976 108.021 23.898 108.021H22.949C22.845 108.021 22.7583 107.986 22.689 107.917C22.6197 107.839 22.585 107.748 22.585 107.644C22.585 107.54 22.6197 107.453 22.689 107.384C22.7583 107.315 22.845 107.28 22.949 107.28H24.08C24.2967 107.28 24.496 107.345 24.678 107.475C24.86 107.605 24.9857 107.774 25.055 107.982L26.914 113.442C26.914 113.451 26.9183 113.455 26.927 113.455C26.9443 113.455 26.953 113.451 26.953 113.442L30.632 102.912C30.736 102.617 30.944 102.47 31.256 102.47Z" fill="#F2F2F2"/>
<path d="M222.419 114.454L219.468 106.03C219.425 105.9 219.438 105.783 219.507 105.679C219.585 105.566 219.693 105.51 219.832 105.51C219.997 105.51 220.148 105.562 220.287 105.666C220.426 105.761 220.521 105.887 220.573 106.043L223.199 113.96C223.199 113.969 223.203 113.973 223.212 113.973C223.229 113.973 223.238 113.969 223.238 113.96L225.864 106.017C225.916 105.861 226.007 105.74 226.137 105.653C226.267 105.558 226.414 105.51 226.579 105.51C226.709 105.51 226.813 105.566 226.891 105.679C226.969 105.783 226.986 105.896 226.943 106.017L223.979 114.454C223.918 114.619 223.814 114.753 223.667 114.857C223.528 114.952 223.372 115 223.199 115C223.026 115 222.865 114.952 222.718 114.857C222.579 114.753 222.48 114.619 222.419 114.454ZM234.284 111.035C234.154 111.165 233.993 111.23 233.803 111.23C233.612 111.23 233.447 111.165 233.309 111.035C233.179 110.896 233.114 110.732 233.114 110.541V110.099C233.114 109.908 233.179 109.748 233.309 109.618C233.447 109.479 233.612 109.41 233.803 109.41C233.993 109.41 234.154 109.479 234.284 109.618C234.422 109.748 234.492 109.908 234.492 110.099V110.541C234.492 110.732 234.422 110.896 234.284 111.035ZM244.476 106.459L242.89 111.295C242.881 111.321 242.885 111.347 242.903 111.373C242.92 111.39 242.942 111.399 242.968 111.399H246.023C246.049 111.399 246.066 111.39 246.075 111.373C246.092 111.347 246.101 111.321 246.101 111.295L244.515 106.459C244.515 106.45 244.51 106.446 244.502 106.446C244.484 106.446 244.476 106.45 244.476 106.459ZM241.135 115C241.005 115 240.901 114.948 240.823 114.844C240.745 114.731 240.727 114.614 240.771 114.493L243.735 106.056C243.795 105.891 243.895 105.761 244.034 105.666C244.181 105.562 244.341 105.51 244.515 105.51C244.688 105.51 244.844 105.562 244.983 105.666C245.13 105.761 245.234 105.891 245.295 106.056L248.246 114.48C248.289 114.61 248.272 114.731 248.194 114.844C248.116 114.948 248.012 115 247.882 115C247.708 115 247.552 114.952 247.414 114.857C247.284 114.753 247.193 114.623 247.141 114.467L246.452 112.335C246.426 112.266 246.374 112.231 246.296 112.231H242.695C242.625 112.231 242.578 112.266 242.552 112.335L241.837 114.493C241.785 114.649 241.694 114.775 241.564 114.87C241.442 114.957 241.299 115 241.135 115Z" fill="#F2F2F2"/>
<path d="M193.131 68C193.018 68 192.919 67.961 192.832 67.883C192.754 67.805 192.715 67.7053 192.715 67.584C192.715 67.4627 192.754 67.363 192.832 67.285C192.919 67.1983 193.018 67.155 193.131 67.155H194.639C194.648 67.155 194.652 67.1507 194.652 67.142C194.652 67.1247 194.648 67.116 194.639 67.116C193.469 66.2493 192.884 64.8757 192.884 62.995C192.884 61.539 193.252 60.408 193.989 59.602C194.726 58.7873 195.731 58.38 197.005 58.38C198.279 58.38 199.284 58.7873 200.021 59.602C200.758 60.408 201.126 61.539 201.126 62.995C201.126 64.8757 200.541 66.2493 199.371 67.116C199.362 67.116 199.358 67.1247 199.358 67.142C199.358 67.1507 199.362 67.155 199.371 67.155H200.879C200.992 67.155 201.087 67.1983 201.165 67.285C201.252 67.363 201.295 67.4627 201.295 67.584C201.295 67.7053 201.252 67.805 201.165 67.883C201.087 67.961 200.992 68 200.879 68H198.032C197.911 68 197.811 67.961 197.733 67.883C197.655 67.805 197.616 67.7053 197.616 67.584C197.616 67.324 197.755 67.142 198.032 67.038C198.647 66.804 199.137 66.3447 199.501 65.66C199.874 64.9753 200.06 64.1433 200.06 63.164C200.06 61.89 199.796 60.9193 199.267 60.252C198.738 59.5847 197.984 59.251 197.005 59.251C196.026 59.251 195.272 59.5847 194.743 60.252C194.214 60.9193 193.95 61.89 193.95 63.164C193.95 64.1433 194.132 64.9753 194.496 65.66C194.869 66.3447 195.363 66.804 195.978 67.038C196.255 67.142 196.394 67.324 196.394 67.584C196.394 67.7053 196.355 67.805 196.277 67.883C196.199 67.961 196.099 68 195.978 68H193.131ZM208.985 64.035C208.855 64.165 208.695 64.23 208.504 64.23C208.313 64.23 208.149 64.165 208.01 64.035C207.88 63.8963 207.815 63.7317 207.815 63.541V63.099C207.815 62.9083 207.88 62.748 208.01 62.618C208.149 62.4793 208.313 62.41 208.504 62.41C208.695 62.41 208.855 62.4793 208.985 62.618C209.124 62.748 209.193 62.9083 209.193 63.099V63.541C209.193 63.7317 209.124 63.8963 208.985 64.035ZM219.177 59.459L217.591 64.295C217.582 64.321 217.587 64.347 217.604 64.373C217.621 64.3903 217.643 64.399 217.669 64.399H220.724C220.75 64.399 220.767 64.3903 220.776 64.373C220.793 64.347 220.802 64.321 220.802 64.295L219.216 59.459C219.216 59.4503 219.212 59.446 219.203 59.446C219.186 59.446 219.177 59.4503 219.177 59.459ZM215.836 68C215.706 68 215.602 67.948 215.524 67.844C215.446 67.7313 215.429 67.6143 215.472 67.493L218.436 59.056C218.497 58.8913 218.596 58.7613 218.735 58.666C218.882 58.562 219.043 58.51 219.216 58.51C219.389 58.51 219.545 58.562 219.684 58.666C219.831 58.7613 219.935 58.8913 219.996 59.056L222.947 67.48C222.99 67.61 222.973 67.7313 222.895 67.844C222.817 67.948 222.713 68 222.583 68C222.41 68 222.254 67.9523 222.115 67.857C221.985 67.753 221.894 67.623 221.842 67.467L221.153 65.335C221.127 65.2657 221.075 65.231 220.997 65.231H217.396C217.327 65.231 217.279 65.2657 217.253 65.335L216.538 67.493C216.486 67.649 216.395 67.7747 216.265 67.87C216.144 67.9567 216.001 68 215.836 68Z" fill="#F2F2F2"/>
<path d="M95.131 234C95.0183 234 94.9187 233.961 94.832 233.883C94.754 233.805 94.715 233.705 94.715 233.584C94.715 233.463 94.754 233.363 94.832 233.285C94.9187 233.198 95.0183 233.155 95.131 233.155H96.639C96.6477 233.155 96.652 233.151 96.652 233.142C96.652 233.125 96.6477 233.116 96.639 233.116C95.469 232.249 94.884 230.876 94.884 228.995C94.884 227.539 95.2523 226.408 95.989 225.602C96.7257 224.787 97.731 224.38 99.005 224.38C100.279 224.38 101.284 224.787 102.021 225.602C102.758 226.408 103.126 227.539 103.126 228.995C103.126 230.876 102.541 232.249 101.371 233.116C101.362 233.116 101.358 233.125 101.358 233.142C101.358 233.151 101.362 233.155 101.371 233.155H102.879C102.992 233.155 103.087 233.198 103.165 233.285C103.252 233.363 103.295 233.463 103.295 233.584C103.295 233.705 103.252 233.805 103.165 233.883C103.087 233.961 102.992 234 102.879 234H100.032C99.9107 234 99.811 233.961 99.733 233.883C99.655 233.805 99.616 233.705 99.616 233.584C99.616 233.324 99.7547 233.142 100.032 233.038C100.647 232.804 101.137 232.345 101.501 231.66C101.874 230.975 102.06 230.143 102.06 229.164C102.06 227.89 101.796 226.919 101.267 226.252C100.738 225.585 99.9843 225.251 99.005 225.251C98.0257 225.251 97.2717 225.585 96.743 226.252C96.2143 226.919 95.95 227.89 95.95 229.164C95.95 230.143 96.132 230.975 96.496 231.66C96.8687 232.345 97.3627 232.804 97.978 233.038C98.2553 233.142 98.394 233.324 98.394 233.584C98.394 233.705 98.355 233.805 98.277 233.883C98.199 233.961 98.0993 234 97.978 234H95.131ZM110.985 230.035C110.855 230.165 110.695 230.23 110.504 230.23C110.313 230.23 110.149 230.165 110.01 230.035C109.88 229.896 109.815 229.732 109.815 229.541V229.099C109.815 228.908 109.88 228.748 110.01 228.618C110.149 228.479 110.313 228.41 110.504 228.41C110.695 228.41 110.855 228.479 110.985 228.618C111.124 228.748 111.193 228.908 111.193 229.099V229.541C111.193 229.732 111.124 229.896 110.985 230.035ZM121.177 225.459L119.591 230.295C119.582 230.321 119.587 230.347 119.604 230.373C119.621 230.39 119.643 230.399 119.669 230.399H122.724C122.75 230.399 122.767 230.39 122.776 230.373C122.793 230.347 122.802 230.321 122.802 230.295L121.216 225.459C121.216 225.45 121.212 225.446 121.203 225.446C121.186 225.446 121.177 225.45 121.177 225.459ZM117.836 234C117.706 234 117.602 233.948 117.524 233.844C117.446 233.731 117.429 233.614 117.472 233.493L120.436 225.056C120.497 224.891 120.596 224.761 120.735 224.666C120.882 224.562 121.043 224.51 121.216 224.51C121.389 224.51 121.545 224.562 121.684 224.666C121.831 224.761 121.935 224.891 121.996 225.056L124.947 233.48C124.99 233.61 124.973 233.731 124.895 233.844C124.817 233.948 124.713 234 124.583 234C124.41 234 124.254 233.952 124.115 233.857C123.985 233.753 123.894 233.623 123.842 233.467L123.153 231.335C123.127 231.266 123.075 231.231 122.997 231.231H119.396C119.327 231.231 119.279 231.266 119.253 231.335L118.538 233.493C118.486 233.649 118.395 233.775 118.265 233.87C118.144 233.957 118.001 234 117.836 234Z" fill="#F2F2F2"/>
<path d="M63.944 199.363L62.124 191.03C62.098 190.891 62.124 190.77 62.202 190.666C62.2887 190.562 62.4013 190.51 62.54 190.51C62.696 190.51 62.8303 190.562 62.943 190.666C63.0643 190.761 63.1423 190.883 63.177 191.03L64.724 198.869C64.724 198.878 64.7283 198.882 64.737 198.882C64.7457 198.882 64.75 198.878 64.75 198.869L66.349 191.173C66.3837 190.982 66.4747 190.826 66.622 190.705C66.778 190.575 66.9513 190.51 67.142 190.51C67.3413 190.51 67.519 190.575 67.675 190.705C67.831 190.826 67.9307 190.982 67.974 191.173L69.573 198.869C69.573 198.878 69.5773 198.882 69.586 198.882C69.5947 198.882 69.599 198.878 69.599 198.869L71.146 191.017C71.172 190.87 71.2413 190.748 71.354 190.653C71.4667 190.558 71.601 190.51 71.757 190.51C71.887 190.51 71.9953 190.562 72.082 190.666C72.1687 190.77 72.199 190.887 72.173 191.017L70.34 199.363C70.2967 199.554 70.2013 199.71 70.054 199.831C69.9067 199.944 69.7377 200 69.547 200C69.3563 200 69.183 199.944 69.027 199.831C68.8797 199.71 68.7887 199.554 68.754 199.363L67.155 191.641C67.155 191.632 67.1507 191.628 67.142 191.628C67.1333 191.628 67.129 191.632 67.129 191.641L65.53 199.363C65.4867 199.554 65.3913 199.71 65.244 199.831C65.0967 199.944 64.9277 200 64.737 200C64.5463 200 64.373 199.944 64.217 199.831C64.0697 199.71 63.9787 199.554 63.944 199.363Z" fill="#F2F2F2"/>
<path d="M154.944 223.363L153.124 215.03C153.098 214.891 153.124 214.77 153.202 214.666C153.289 214.562 153.401 214.51 153.54 214.51C153.696 214.51 153.83 214.562 153.943 214.666C154.064 214.761 154.142 214.883 154.177 215.03L155.724 222.869C155.724 222.878 155.728 222.882 155.737 222.882C155.746 222.882 155.75 222.878 155.75 222.869L157.349 215.173C157.384 214.982 157.475 214.826 157.622 214.705C157.778 214.575 157.951 214.51 158.142 214.51C158.341 214.51 158.519 214.575 158.675 214.705C158.831 214.826 158.931 214.982 158.974 215.173L160.573 222.869C160.573 222.878 160.577 222.882 160.586 222.882C160.595 222.882 160.599 222.878 160.599 222.869L162.146 215.017C162.172 214.87 162.241 214.748 162.354 214.653C162.467 214.558 162.601 214.51 162.757 214.51C162.887 214.51 162.995 214.562 163.082 214.666C163.169 214.77 163.199 214.887 163.173 215.017L161.34 223.363C161.297 223.554 161.201 223.71 161.054 223.831C160.907 223.944 160.738 224 160.547 224C160.356 224 160.183 223.944 160.027 223.831C159.88 223.71 159.789 223.554 159.754 223.363L158.155 215.641C158.155 215.632 158.151 215.628 158.142 215.628C158.133 215.628 158.129 215.632 158.129 215.641L156.53 223.363C156.487 223.554 156.391 223.71 156.244 223.831C156.097 223.944 155.928 224 155.737 224C155.546 224 155.373 223.944 155.217 223.831C155.07 223.71 154.979 223.554 154.944 223.363Z" fill="#F2F2F2"/>
<path d="M202.919 201.454L199.968 193.03C199.925 192.9 199.938 192.783 200.007 192.679C200.085 192.566 200.193 192.51 200.332 192.51C200.497 192.51 200.648 192.562 200.787 192.666C200.926 192.761 201.021 192.887 201.073 193.043L203.699 200.96C203.699 200.969 203.703 200.973 203.712 200.973C203.729 200.973 203.738 200.969 203.738 200.96L206.364 193.017C206.416 192.861 206.507 192.74 206.637 192.653C206.767 192.558 206.914 192.51 207.079 192.51C207.209 192.51 207.313 192.566 207.391 192.679C207.469 192.783 207.486 192.896 207.443 193.017L204.479 201.454C204.418 201.619 204.314 201.753 204.167 201.857C204.028 201.952 203.872 202 203.699 202C203.526 202 203.365 201.952 203.218 201.857C203.079 201.753 202.98 201.619 202.919 201.454Z" fill="#F2F2F2"/>
<path d="M156.919 34.454L153.968 26.03C153.925 25.9 153.938 25.783 154.007 25.679C154.085 25.5663 154.193 25.51 154.332 25.51C154.497 25.51 154.648 25.562 154.787 25.666C154.926 25.7613 155.021 25.887 155.073 26.043L157.699 33.96C157.699 33.9687 157.703 33.973 157.712 33.973C157.729 33.973 157.738 33.9687 157.738 33.96L160.364 26.017C160.416 25.861 160.507 25.7397 160.637 25.653C160.767 25.5577 160.914 25.51 161.079 25.51C161.209 25.51 161.313 25.5663 161.391 25.679C161.469 25.783 161.486 25.8957 161.443 26.017L158.479 34.454C158.418 34.6187 158.314 34.753 158.167 34.857C158.028 34.9523 157.872 35 157.699 35C157.526 35 157.365 34.9523 157.218 34.857C157.079 34.753 156.98 34.6187 156.919 34.454Z" fill="#F2F2F2"/>
<path d="M107.919 33.454L104.968 25.03C104.925 24.9 104.938 24.783 105.007 24.679C105.085 24.5663 105.193 24.51 105.332 24.51C105.497 24.51 105.648 24.562 105.787 24.666C105.926 24.7613 106.021 24.887 106.073 25.043L108.699 32.96C108.699 32.9687 108.703 32.973 108.712 32.973C108.729 32.973 108.738 32.9687 108.738 32.96L111.364 25.017C111.416 24.861 111.507 24.7397 111.637 24.653C111.767 24.5577 111.914 24.51 112.079 24.51C112.209 24.51 112.313 24.5663 112.391 24.679C112.469 24.783 112.486 24.8957 112.443 25.017L109.479 33.454C109.418 33.6187 109.314 33.753 109.167 33.857C109.028 33.9523 108.872 34 108.699 34C108.526 34 108.365 33.9523 108.218 33.857C108.079 33.753 107.98 33.6187 107.919 33.454Z" fill="#F2F2F2"/>
<path d="M62.444 59.363L60.624 51.03C60.598 50.8913 60.624 50.77 60.702 50.666C60.7887 50.562 60.9013 50.51 61.04 50.51C61.196 50.51 61.3303 50.562 61.443 50.666C61.5643 50.7613 61.6423 50.8827 61.677 51.03L63.224 58.869C63.224 58.8777 63.2283 58.882 63.237 58.882C63.2457 58.882 63.25 58.8777 63.25 58.869L64.849 51.173C64.8837 50.9823 64.9747 50.8263 65.122 50.705C65.278 50.575 65.4513 50.51 65.642 50.51C65.8413 50.51 66.019 50.575 66.175 50.705C66.331 50.8263 66.4307 50.9823 66.474 51.173L68.073 58.869C68.073 58.8777 68.0773 58.882 68.086 58.882C68.0947 58.882 68.099 58.8777 68.099 58.869L69.646 51.017C69.672 50.8697 69.7413 50.7483 69.854 50.653C69.9667 50.5577 70.101 50.51 70.257 50.51C70.387 50.51 70.4953 50.562 70.582 50.666C70.6687 50.77 70.699 50.887 70.673 51.017L68.84 59.363C68.7967 59.5537 68.7013 59.7097 68.554 59.831C68.4067 59.9437 68.2377 60 68.047 60C67.8563 60 67.683 59.9437 67.527 59.831C67.3797 59.7097 67.2887 59.5537 67.254 59.363L65.655 51.641C65.655 51.6323 65.6507 51.628 65.642 51.628C65.6333 51.628 65.629 51.6323 65.629 51.641L64.03 59.363C63.9867 59.5537 63.8913 59.7097 63.744 59.831C63.5967 59.9437 63.4277 60 63.237 60C63.0463 60 62.873 59.9437 62.717 59.831C62.5697 59.7097 62.4787 59.5537 62.444 59.363Z" fill="#F2F2F2"/>
<path d="M38.444 104.363L36.624 96.03C36.598 95.8913 36.624 95.77 36.702 95.666C36.7887 95.562 36.9013 95.51 37.04 95.51C37.196 95.51 37.3303 95.562 37.443 95.666C37.5643 95.7613 37.6423 95.8827 37.677 96.03L39.224 103.869C39.224 103.878 39.2283 103.882 39.237 103.882C39.2457 103.882 39.25 103.878 39.25 103.869L40.849 96.173C40.8837 95.9823 40.9747 95.8263 41.122 95.705C41.278 95.575 41.4513 95.51 41.642 95.51C41.8413 95.51 42.019 95.575 42.175 95.705C42.331 95.8263 42.4307 95.9823 42.474 96.173L44.073 103.869C44.073 103.878 44.0773 103.882 44.086 103.882C44.0947 103.882 44.099 103.878 44.099 103.869L45.646 96.017C45.672 95.8697 45.7413 95.7483 45.854 95.653C45.9667 95.5577 46.101 95.51 46.257 95.51C46.387 95.51 46.4953 95.562 46.582 95.666C46.6687 95.77 46.699 95.887 46.673 96.017L44.84 104.363C44.7967 104.554 44.7013 104.71 44.554 104.831C44.4067 104.944 44.2377 105 44.047 105C43.8563 105 43.683 104.944 43.527 104.831C43.3797 104.71 43.2887 104.554 43.254 104.363L41.655 96.641C41.655 96.6323 41.6507 96.628 41.642 96.628C41.6333 96.628 41.629 96.6323 41.629 96.641L40.03 104.363C39.9867 104.554 39.8913 104.71 39.744 104.831C39.5967 104.944 39.4277 105 39.237 105C39.0463 105 38.873 104.944 38.717 104.831C38.5697 104.71 38.4787 104.554 38.444 104.363Z" fill="#F2F2F2"/>
<path d="M59.5642 204.82C59.4515 204.82 59.3562 204.781 59.2782 204.703C59.2089 204.634 59.1742 204.543 59.1742 204.43C59.1742 204.317 59.2089 204.222 59.2782 204.144C59.3562 204.075 59.4515 204.04 59.5642 204.04H66.1422C66.2549 204.04 66.3459 204.075 66.4152 204.144C66.4932 204.222 66.5322 204.317 66.5322 204.43C66.5322 204.543 66.4932 204.634 66.4152 204.703C66.3459 204.781 66.2549 204.82 66.1422 204.82H59.5642ZM66.864 204.82C66.7513 204.82 66.656 204.781 66.578 204.703C66.5087 204.634 66.474 204.543 66.474 204.43C66.474 204.317 66.5087 204.222 66.578 204.144C66.656 204.075 66.7513 204.04 66.864 204.04H73.442C73.5547 204.04 73.6457 204.075 73.715 204.144C73.793 204.222 73.832 204.317 73.832 204.43C73.832 204.543 73.793 204.634 73.715 204.703C73.6457 204.781 73.5547 204.82 73.442 204.82H66.864Z" fill="#F2F2F2"/>
<path d="M150.564 228.82C150.452 228.82 150.356 228.781 150.278 228.703C150.209 228.634 150.174 228.543 150.174 228.43C150.174 228.317 150.209 228.222 150.278 228.144C150.356 228.075 150.452 228.04 150.564 228.04H157.142C157.255 228.04 157.346 228.075 157.415 228.144C157.493 228.222 157.532 228.317 157.532 228.43C157.532 228.543 157.493 228.634 157.415 228.703C157.346 228.781 157.255 228.82 157.142 228.82H150.564ZM157.864 228.82C157.751 228.82 157.656 228.781 157.578 228.703C157.509 228.634 157.474 228.543 157.474 228.43C157.474 228.317 157.509 228.222 157.578 228.144C157.656 228.075 157.751 228.04 157.864 228.04H164.442C164.555 228.04 164.646 228.075 164.715 228.144C164.793 228.222 164.832 228.317 164.832 228.43C164.832 228.543 164.793 228.634 164.715 228.703C164.646 228.781 164.555 228.82 164.442 228.82H157.864Z" fill="#F2F2F2"/>
<path d="M196.564 206.82C196.452 206.82 196.356 206.781 196.278 206.703C196.209 206.634 196.174 206.543 196.174 206.43C196.174 206.317 196.209 206.222 196.278 206.144C196.356 206.075 196.452 206.04 196.564 206.04H203.142C203.255 206.04 203.346 206.075 203.415 206.144C203.493 206.222 203.532 206.317 203.532 206.43C203.532 206.543 203.493 206.634 203.415 206.703C203.346 206.781 203.255 206.82 203.142 206.82H196.564ZM203.864 206.82C203.751 206.82 203.656 206.781 203.578 206.703C203.509 206.634 203.474 206.543 203.474 206.43C203.474 206.317 203.509 206.222 203.578 206.144C203.656 206.075 203.751 206.04 203.864 206.04H210.442C210.555 206.04 210.646 206.075 210.715 206.144C210.793 206.222 210.832 206.317 210.832 206.43C210.832 206.543 210.793 206.634 210.715 206.703C210.646 206.781 210.555 206.82 210.442 206.82H203.864Z" fill="#F2F2F2"/>
<path d="M150.564 39.82C150.452 39.82 150.356 39.781 150.278 39.703C150.209 39.6337 150.174 39.5427 150.174 39.43C150.174 39.3173 150.209 39.222 150.278 39.144C150.356 39.0747 150.452 39.04 150.564 39.04H157.142C157.255 39.04 157.346 39.0747 157.415 39.144C157.493 39.222 157.532 39.3173 157.532 39.43C157.532 39.5427 157.493 39.6337 157.415 39.703C157.346 39.781 157.255 39.82 157.142 39.82H150.564ZM157.864 39.82C157.751 39.82 157.656 39.781 157.578 39.703C157.509 39.6337 157.474 39.5427 157.474 39.43C157.474 39.3173 157.509 39.222 157.578 39.144C157.656 39.0747 157.751 39.04 157.864 39.04H164.442C164.555 39.04 164.646 39.0747 164.715 39.144C164.793 39.222 164.832 39.3173 164.832 39.43C164.832 39.5427 164.793 39.6337 164.715 39.703C164.646 39.781 164.555 39.82 164.442 39.82H157.864Z" fill="#F2F2F2"/>
<path d="M101.564 38.82C101.452 38.82 101.356 38.781 101.278 38.703C101.209 38.6337 101.174 38.5427 101.174 38.43C101.174 38.3173 101.209 38.222 101.278 38.144C101.356 38.0747 101.452 38.04 101.564 38.04H108.142C108.255 38.04 108.346 38.0747 108.415 38.144C108.493 38.222 108.532 38.3173 108.532 38.43C108.532 38.5427 108.493 38.6337 108.415 38.703C108.346 38.781 108.255 38.82 108.142 38.82H101.564ZM108.864 38.82C108.751 38.82 108.656 38.781 108.578 38.703C108.509 38.6337 108.474 38.5427 108.474 38.43C108.474 38.3173 108.509 38.222 108.578 38.144C108.656 38.0747 108.751 38.04 108.864 38.04H115.442C115.555 38.04 115.646 38.0747 115.715 38.144C115.793 38.222 115.832 38.3173 115.832 38.43C115.832 38.5427 115.793 38.6337 115.715 38.703C115.646 38.781 115.555 38.82 115.442 38.82H108.864Z" fill="#F2F2F2"/>
<path d="M58.5642 64.82C58.4515 64.82 58.3562 64.781 58.2782 64.703C58.2089 64.6337 58.1742 64.5427 58.1742 64.43C58.1742 64.3173 58.2089 64.222 58.2782 64.144C58.3562 64.0747 58.4515 64.04 58.5642 64.04H65.1422C65.2549 64.04 65.3459 64.0747 65.4152 64.144C65.4932 64.222 65.5322 64.3173 65.5322 64.43C65.5322 64.5427 65.4932 64.6337 65.4152 64.703C65.3459 64.781 65.2549 64.82 65.1422 64.82H58.5642ZM65.864 64.82C65.7513 64.82 65.656 64.781 65.578 64.703C65.5087 64.6337 65.474 64.5427 65.474 64.43C65.474 64.3173 65.5087 64.222 65.578 64.144C65.656 64.0747 65.7513 64.04 65.864 64.04H72.442C72.5547 64.04 72.6457 64.0747 72.715 64.144C72.793 64.222 72.832 64.3173 72.832 64.43C72.832 64.5427 72.793 64.6337 72.715 64.703C72.6457 64.781 72.5547 64.82 72.442 64.82H65.864Z" fill="#F2F2F2"/>
<path d="M34.5642 109.82C34.4515 109.82 34.3562 109.781 34.2782 109.703C34.2089 109.634 34.1742 109.543 34.1742 109.43C34.1742 109.317 34.2089 109.222 34.2782 109.144C34.3562 109.075 34.4515 109.04 34.5642 109.04H41.1422C41.2549 109.04 41.3459 109.075 41.4152 109.144C41.4932 109.222 41.5322 109.317 41.5322 109.43C41.5322 109.543 41.4932 109.634 41.4152 109.703C41.3459 109.781 41.2549 109.82 41.1422 109.82H34.5642ZM41.864 109.82C41.7513 109.82 41.656 109.781 41.578 109.703C41.5087 109.634 41.474 109.543 41.474 109.43C41.474 109.317 41.5087 109.222 41.578 109.144C41.656 109.075 41.7513 109.04 41.864 109.04H48.442C48.5547 109.04 48.6457 109.075 48.715 109.144C48.793 109.222 48.832 109.317 48.832 109.43C48.832 109.543 48.793 109.634 48.715 109.703C48.6457 109.781 48.5547 109.82 48.442 109.82H41.864Z" fill="#F2F2F2"/>
<path d="M66.173 209.459L64.587 214.295C64.5783 214.321 64.5827 214.347 64.6 214.373C64.6173 214.39 64.639 214.399 64.665 214.399H67.72C67.746 214.399 67.7633 214.39 67.772 214.373C67.7893 214.347 67.798 214.321 67.798 214.295L66.212 209.459C66.212 209.45 66.2077 209.446 66.199 209.446C66.1817 209.446 66.173 209.45 66.173 209.459ZM62.832 218C62.702 218 62.598 217.948 62.52 217.844C62.442 217.731 62.4247 217.614 62.468 217.493L65.432 209.056C65.4927 208.891 65.5923 208.761 65.731 208.666C65.8783 208.562 66.0387 208.51 66.212 208.51C66.3853 208.51 66.5413 208.562 66.68 208.666C66.8273 208.761 66.9313 208.891 66.992 209.056L69.943 217.48C69.9863 217.61 69.969 217.731 69.891 217.844C69.813 217.948 69.709 218 69.579 218C69.4057 218 69.2497 217.952 69.111 217.857C68.981 217.753 68.89 217.623 68.838 217.467L68.149 215.335C68.123 215.266 68.071 215.231 67.993 215.231H64.392C64.3227 215.231 64.275 215.266 64.249 215.335L63.534 217.493C63.482 217.649 63.391 217.775 63.261 217.87C63.1397 217.957 62.9967 218 62.832 218Z" fill="#F2F2F2"/>
<path d="M157.173 235.459L155.587 240.295C155.578 240.321 155.583 240.347 155.6 240.373C155.617 240.39 155.639 240.399 155.665 240.399H158.72C158.746 240.399 158.763 240.39 158.772 240.373C158.789 240.347 158.798 240.321 158.798 240.295L157.212 235.459C157.212 235.45 157.208 235.446 157.199 235.446C157.182 235.446 157.173 235.45 157.173 235.459ZM153.832 244C153.702 244 153.598 243.948 153.52 243.844C153.442 243.731 153.425 243.614 153.468 243.493L156.432 235.056C156.493 234.891 156.592 234.761 156.731 234.666C156.878 234.562 157.039 234.51 157.212 234.51C157.385 234.51 157.541 234.562 157.68 234.666C157.827 234.761 157.931 234.891 157.992 235.056L160.943 243.48C160.986 243.61 160.969 243.731 160.891 243.844C160.813 243.948 160.709 244 160.579 244C160.406 244 160.25 243.952 160.111 243.857C159.981 243.753 159.89 243.623 159.838 243.467L159.149 241.335C159.123 241.266 159.071 241.231 158.993 241.231H155.392C155.323 241.231 155.275 241.266 155.249 241.335L154.534 243.493C154.482 243.649 154.391 243.775 154.261 243.87C154.14 243.957 153.997 244 153.832 244Z" fill="#F2F2F2"/>
<path d="M200.444 220.363L198.624 212.03C198.598 211.891 198.624 211.77 198.702 211.666C198.789 211.562 198.901 211.51 199.04 211.51C199.196 211.51 199.33 211.562 199.443 211.666C199.564 211.761 199.642 211.883 199.677 212.03L201.224 219.869C201.224 219.878 201.228 219.882 201.237 219.882C201.246 219.882 201.25 219.878 201.25 219.869L202.849 212.173C202.884 211.982 202.975 211.826 203.122 211.705C203.278 211.575 203.451 211.51 203.642 211.51C203.841 211.51 204.019 211.575 204.175 211.705C204.331 211.826 204.431 211.982 204.474 212.173L206.073 219.869C206.073 219.878 206.077 219.882 206.086 219.882C206.095 219.882 206.099 219.878 206.099 219.869L207.646 212.017C207.672 211.87 207.741 211.748 207.854 211.653C207.967 211.558 208.101 211.51 208.257 211.51C208.387 211.51 208.495 211.562 208.582 211.666C208.669 211.77 208.699 211.887 208.673 212.017L206.84 220.363C206.797 220.554 206.701 220.71 206.554 220.831C206.407 220.944 206.238 221 206.047 221C205.856 221 205.683 220.944 205.527 220.831C205.38 220.71 205.289 220.554 205.254 220.363L203.655 212.641C203.655 212.632 203.651 212.628 203.642 212.628C203.633 212.628 203.629 212.632 203.629 212.641L202.03 220.363C201.987 220.554 201.891 220.71 201.744 220.831C201.597 220.944 201.428 221 201.237 221C201.046 221 200.873 220.944 200.717 220.831C200.57 220.71 200.479 220.554 200.444 220.363Z" fill="#F2F2F2"/>
<path d="M154.131 54C154.018 54 153.919 53.961 153.832 53.883C153.754 53.805 153.715 53.7053 153.715 53.584C153.715 53.4627 153.754 53.363 153.832 53.285C153.919 53.1983 154.018 53.155 154.131 53.155H155.639C155.648 53.155 155.652 53.1507 155.652 53.142C155.652 53.1247 155.648 53.116 155.639 53.116C154.469 52.2493 153.884 50.8757 153.884 48.995C153.884 47.539 154.252 46.408 154.989 45.602C155.726 44.7873 156.731 44.38 158.005 44.38C159.279 44.38 160.284 44.7873 161.021 45.602C161.758 46.408 162.126 47.539 162.126 48.995C162.126 50.8757 161.541 52.2493 160.371 53.116C160.362 53.116 160.358 53.1247 160.358 53.142C160.358 53.1507 160.362 53.155 160.371 53.155H161.879C161.992 53.155 162.087 53.1983 162.165 53.285C162.252 53.363 162.295 53.4627 162.295 53.584C162.295 53.7053 162.252 53.805 162.165 53.883C162.087 53.961 161.992 54 161.879 54H159.032C158.911 54 158.811 53.961 158.733 53.883C158.655 53.805 158.616 53.7053 158.616 53.584C158.616 53.324 158.755 53.142 159.032 53.038C159.647 52.804 160.137 52.3447 160.501 51.66C160.874 50.9753 161.06 50.1433 161.06 49.164C161.06 47.89 160.796 46.9193 160.267 46.252C159.738 45.5847 158.984 45.251 158.005 45.251C157.026 45.251 156.272 45.5847 155.743 46.252C155.214 46.9193 154.95 47.89 154.95 49.164C154.95 50.1433 155.132 50.9753 155.496 51.66C155.869 52.3447 156.363 52.804 156.978 53.038C157.255 53.142 157.394 53.324 157.394 53.584C157.394 53.7053 157.355 53.805 157.277 53.883C157.199 53.961 157.099 54 156.978 54H154.131Z" fill="#F2F2F2"/>
<path d="M104.131 53C104.018 53 103.919 52.961 103.832 52.883C103.754 52.805 103.715 52.7053 103.715 52.584C103.715 52.4627 103.754 52.363 103.832 52.285C103.919 52.1983 104.018 52.155 104.131 52.155H105.639C105.648 52.155 105.652 52.1507 105.652 52.142C105.652 52.1247 105.648 52.116 105.639 52.116C104.469 51.2493 103.884 49.8757 103.884 47.995C103.884 46.539 104.252 45.408 104.989 44.602C105.726 43.7873 106.731 43.38 108.005 43.38C109.279 43.38 110.284 43.7873 111.021 44.602C111.758 45.408 112.126 46.539 112.126 47.995C112.126 49.8757 111.541 51.2493 110.371 52.116C110.362 52.116 110.358 52.1247 110.358 52.142C110.358 52.1507 110.362 52.155 110.371 52.155H111.879C111.992 52.155 112.087 52.1983 112.165 52.285C112.252 52.363 112.295 52.4627 112.295 52.584C112.295 52.7053 112.252 52.805 112.165 52.883C112.087 52.961 111.992 53 111.879 53H109.032C108.911 53 108.811 52.961 108.733 52.883C108.655 52.805 108.616 52.7053 108.616 52.584C108.616 52.324 108.755 52.142 109.032 52.038C109.647 51.804 110.137 51.3447 110.501 50.66C110.874 49.9753 111.06 49.1433 111.06 48.164C111.06 46.89 110.796 45.9193 110.267 45.252C109.738 44.5847 108.984 44.251 108.005 44.251C107.026 44.251 106.272 44.5847 105.743 45.252C105.214 45.9193 104.95 46.89 104.95 48.164C104.95 49.1433 105.132 49.9753 105.496 50.66C105.869 51.3447 106.363 51.804 106.978 52.038C107.255 52.142 107.394 52.324 107.394 52.584C107.394 52.7053 107.355 52.805 107.277 52.883C107.199 52.961 107.099 53 106.978 53H104.131Z" fill="#F2F2F2"/>
<path d="M64.419 78.454L61.468 70.03C61.4247 69.9 61.4377 69.783 61.507 69.679C61.585 69.5663 61.6933 69.51 61.832 69.51C61.9967 69.51 62.1483 69.562 62.287 69.666C62.4257 69.7613 62.521 69.887 62.573 70.043L65.199 77.96C65.199 77.9687 65.2033 77.973 65.212 77.973C65.2293 77.973 65.238 77.9687 65.238 77.96L67.864 70.017C67.916 69.861 68.007 69.7397 68.137 69.653C68.267 69.5577 68.4143 69.51 68.579 69.51C68.709 69.51 68.813 69.5663 68.891 69.679C68.969 69.783 68.9863 69.8957 68.943 70.017L65.979 78.454C65.9183 78.6187 65.8143 78.753 65.667 78.857C65.5283 78.9523 65.3723 79 65.199 79C65.0257 79 64.8653 78.9523 64.718 78.857C64.5793 78.753 64.4797 78.6187 64.419 78.454Z" fill="#F2F2F2"/>
<path d="M37.131 124C37.0183 124 36.9187 123.961 36.832 123.883C36.754 123.805 36.715 123.705 36.715 123.584C36.715 123.463 36.754 123.363 36.832 123.285C36.9187 123.198 37.0183 123.155 37.131 123.155H38.639C38.6477 123.155 38.652 123.151 38.652 123.142C38.652 123.125 38.6477 123.116 38.639 123.116C37.469 122.249 36.884 120.876 36.884 118.995C36.884 117.539 37.2523 116.408 37.989 115.602C38.7257 114.787 39.731 114.38 41.005 114.38C42.279 114.38 43.2843 114.787 44.021 115.602C44.7577 116.408 45.126 117.539 45.126 118.995C45.126 120.876 44.541 122.249 43.371 123.116C43.3623 123.116 43.358 123.125 43.358 123.142C43.358 123.151 43.3623 123.155 43.371 123.155H44.879C44.9917 123.155 45.087 123.198 45.165 123.285C45.2517 123.363 45.295 123.463 45.295 123.584C45.295 123.705 45.2517 123.805 45.165 123.883C45.087 123.961 44.9917 124 44.879 124H42.032C41.9107 124 41.811 123.961 41.733 123.883C41.655 123.805 41.616 123.705 41.616 123.584C41.616 123.324 41.7547 123.142 42.032 123.038C42.6473 122.804 43.137 122.345 43.501 121.66C43.8737 120.975 44.06 120.143 44.06 119.164C44.06 117.89 43.7957 116.919 43.267 116.252C42.7383 115.585 41.9843 115.251 41.005 115.251C40.0257 115.251 39.2717 115.585 38.743 116.252C38.2143 116.919 37.95 117.89 37.95 119.164C37.95 120.143 38.132 120.975 38.496 121.66C38.8687 122.345 39.3627 122.804 39.978 123.038C40.2553 123.142 40.394 123.324 40.394 123.584C40.394 123.705 40.355 123.805 40.277 123.883C40.199 123.961 40.0993 124 39.978 124H37.131Z" fill="#F2F2F2"/>
<path d="M160.81 237C160.718 237 160.638 236.966 160.57 236.898C160.502 236.83 160.468 236.75 160.468 236.658V236.52C160.468 236.296 160.558 236.114 160.738 235.974C161.41 235.446 161.854 235.044 162.07 234.768C162.29 234.492 162.4 234.222 162.4 233.958C162.4 233.59 162.196 233.406 161.788 233.406C161.54 233.406 161.236 233.474 160.876 233.61C160.8 233.638 160.728 233.63 160.66 233.586C160.592 233.542 160.558 233.48 160.558 233.4V233.148C160.558 233.044 160.588 232.952 160.648 232.872C160.708 232.788 160.788 232.732 160.888 232.704C161.252 232.608 161.602 232.56 161.938 232.56C162.422 232.56 162.794 232.676 163.054 232.908C163.318 233.136 163.45 233.454 163.45 233.862C163.45 234.214 163.338 234.55 163.114 234.87C162.894 235.186 162.462 235.616 161.818 236.16C161.814 236.164 161.812 236.168 161.812 236.172C161.812 236.176 161.814 236.178 161.818 236.178H163.132C163.224 236.178 163.302 236.212 163.366 236.28C163.434 236.348 163.468 236.428 163.468 236.52V236.658C163.468 236.75 163.434 236.83 163.366 236.898C163.302 236.966 163.224 237 163.132 237H160.81Z" fill="#F2F2F2"/>
<path d="M209.81 194C209.718 194 209.638 193.966 209.57 193.898C209.502 193.83 209.468 193.75 209.468 193.658V193.52C209.468 193.296 209.558 193.114 209.738 192.974C210.41 192.446 210.854 192.044 211.07 191.768C211.29 191.492 211.4 191.222 211.4 190.958C211.4 190.59 211.196 190.406 210.788 190.406C210.54 190.406 210.236 190.474 209.876 190.61C209.8 190.638 209.728 190.63 209.66 190.586C209.592 190.542 209.558 190.48 209.558 190.4V190.148C209.558 190.044 209.588 189.952 209.648 189.872C209.708 189.788 209.788 189.732 209.888 189.704C210.252 189.608 210.602 189.56 210.938 189.56C211.422 189.56 211.794 189.676 212.054 189.908C212.318 190.136 212.45 190.454 212.45 190.862C212.45 191.214 212.338 191.55 212.114 191.87C211.894 192.186 211.462 192.616 210.818 193.16C210.814 193.164 210.812 193.168 210.812 193.172C210.812 193.176 210.814 193.178 210.818 193.178H212.132C212.224 193.178 212.302 193.212 212.366 193.28C212.434 193.348 212.468 193.428 212.468 193.52V193.658C212.468 193.75 212.434 193.83 212.366 193.898C212.302 193.966 212.224 194 212.132 194H209.81Z" fill="#F2F2F2"/>
<path d="M163.81 27C163.718 27 163.638 26.966 163.57 26.898C163.502 26.83 163.468 26.75 163.468 26.658V26.52C163.468 26.296 163.558 26.114 163.738 25.974C164.41 25.446 164.854 25.044 165.07 24.768C165.29 24.492 165.4 24.222 165.4 23.958C165.4 23.59 165.196 23.406 164.788 23.406C164.54 23.406 164.236 23.474 163.876 23.61C163.8 23.638 163.728 23.63 163.66 23.586C163.592 23.542 163.558 23.48 163.558 23.4V23.148C163.558 23.044 163.588 22.952 163.648 22.872C163.708 22.788 163.788 22.732 163.888 22.704C164.252 22.608 164.602 22.56 164.938 22.56C165.422 22.56 165.794 22.676 166.054 22.908C166.318 23.136 166.45 23.454 166.45 23.862C166.45 24.214 166.338 24.55 166.114 24.87C165.894 25.186 165.462 25.616 164.818 26.16C164.814 26.164 164.812 26.168 164.812 26.172C164.812 26.176 164.814 26.178 164.818 26.178H166.132C166.224 26.178 166.302 26.212 166.366 26.28C166.434 26.348 166.468 26.428 166.468 26.52V26.658C166.468 26.75 166.434 26.83 166.366 26.898C166.302 26.966 166.224 27 166.132 27H163.81Z" fill="#F2F2F2"/>
<path d="M222.81 61C222.718 61 222.638 60.966 222.57 60.898C222.502 60.83 222.468 60.75 222.468 60.658V60.52C222.468 60.296 222.558 60.114 222.738 59.974C223.41 59.446 223.854 59.044 224.07 58.768C224.29 58.492 224.4 58.222 224.4 57.958C224.4 57.59 224.196 57.406 223.788 57.406C223.54 57.406 223.236 57.474 222.876 57.61C222.8 57.638 222.728 57.63 222.66 57.586C222.592 57.542 222.558 57.48 222.558 57.4V57.148C222.558 57.044 222.588 56.952 222.648 56.872C222.708 56.788 222.788 56.732 222.888 56.704C223.252 56.608 223.602 56.56 223.938 56.56C224.422 56.56 224.794 56.676 225.054 56.908C225.318 57.136 225.45 57.454 225.45 57.862C225.45 58.214 225.338 58.55 225.114 58.87C224.894 59.186 224.462 59.616 223.818 60.16C223.814 60.164 223.812 60.168 223.812 60.172C223.812 60.176 223.814 60.178 223.818 60.178H225.132C225.224 60.178 225.302 60.212 225.366 60.28C225.434 60.348 225.468 60.428 225.468 60.52V60.658C225.468 60.75 225.434 60.83 225.366 60.898C225.302 60.966 225.224 61 225.132 61H222.81Z" fill="#F2F2F2"/>
<path d="M230.919 155.454L227.968 147.03C227.925 146.9 227.938 146.783 228.007 146.679C228.085 146.566 228.193 146.51 228.332 146.51C228.497 146.51 228.648 146.562 228.787 146.666C228.926 146.761 229.021 146.887 229.073 147.043L231.699 154.96C231.699 154.969 231.703 154.973 231.712 154.973C231.729 154.973 231.738 154.969 231.738 154.96L234.364 147.017C234.416 146.861 234.507 146.74 234.637 146.653C234.767 146.558 234.914 146.51 235.079 146.51C235.209 146.51 235.313 146.566 235.391 146.679C235.469 146.783 235.486 146.896 235.443 147.017L232.479 155.454C232.418 155.619 232.314 155.753 232.167 155.857C232.028 155.952 231.872 156 231.699 156C231.526 156 231.365 155.952 231.218 155.857C231.079 155.753 230.98 155.619 230.919 155.454Z" fill="#F2F2F2"/>
<path d="M224.564 160.82C224.452 160.82 224.356 160.781 224.278 160.703C224.209 160.634 224.174 160.543 224.174 160.43C224.174 160.317 224.209 160.222 224.278 160.144C224.356 160.075 224.452 160.04 224.564 160.04H231.142C231.255 160.04 231.346 160.075 231.415 160.144C231.493 160.222 231.532 160.317 231.532 160.43C231.532 160.543 231.493 160.634 231.415 160.703C231.346 160.781 231.255 160.82 231.142 160.82H224.564ZM231.864 160.82C231.751 160.82 231.656 160.781 231.578 160.703C231.509 160.634 231.474 160.543 231.474 160.43C231.474 160.317 231.509 160.222 231.578 160.144C231.656 160.075 231.751 160.04 231.864 160.04H238.442C238.555 160.04 238.646 160.075 238.715 160.144C238.793 160.222 238.832 160.317 238.832 160.43C238.832 160.543 238.793 160.634 238.715 160.703C238.646 160.781 238.555 160.82 238.442 160.82H231.864Z" fill="#F2F2F2"/>
<path d="M232.173 166.459L230.587 171.295C230.578 171.321 230.583 171.347 230.6 171.373C230.617 171.39 230.639 171.399 230.665 171.399H233.72C233.746 171.399 233.763 171.39 233.772 171.373C233.789 171.347 233.798 171.321 233.798 171.295L232.212 166.459C232.212 166.45 232.208 166.446 232.199 166.446C232.182 166.446 232.173 166.45 232.173 166.459ZM228.832 175C228.702 175 228.598 174.948 228.52 174.844C228.442 174.731 228.425 174.614 228.468 174.493L231.432 166.056C231.493 165.891 231.592 165.761 231.731 165.666C231.878 165.562 232.039 165.51 232.212 165.51C232.385 165.51 232.541 165.562 232.68 165.666C232.827 165.761 232.931 165.891 232.992 166.056L235.943 174.48C235.986 174.61 235.969 174.731 235.891 174.844C235.813 174.948 235.709 175 235.579 175C235.406 175 235.25 174.952 235.111 174.857C234.981 174.753 234.89 174.623 234.838 174.467L234.149 172.335C234.123 172.266 234.071 172.231 233.993 172.231H230.392C230.323 172.231 230.275 172.266 230.249 172.335L229.534 174.493C229.482 174.649 229.391 174.775 229.261 174.87C229.14 174.957 228.997 175 228.832 175Z" fill="#F2F2F2"/>
<path d="M141.485 141.087V143.481C141.485 143.535 141.512 143.562 141.566 143.562H142.205C142.919 143.562 143.444 143.448 143.78 143.22C144.116 142.986 144.284 142.641 144.284 142.185C144.284 141.345 143.651 140.925 142.385 140.925C142.115 140.925 141.842 140.949 141.566 140.997C141.512 141.009 141.485 141.039 141.485 141.087ZM141.377 146.892C141.311 146.964 141.227 147 141.125 147C141.023 147 140.936 146.964 140.864 146.892C140.798 146.82 140.765 146.736 140.765 146.64V140.988C140.765 140.838 140.813 140.709 140.909 140.601C141.005 140.487 141.125 140.421 141.269 140.403C141.623 140.361 142.016 140.34 142.448 140.34C143.288 140.34 143.921 140.496 144.347 140.808C144.779 141.114 144.995 141.552 144.995 142.122C144.995 142.578 144.872 142.959 144.626 143.265C144.386 143.565 144.041 143.772 143.591 143.886C143.585 143.886 143.582 143.892 143.582 143.904C143.582 143.91 143.585 143.913 143.591 143.913C143.849 144.063 144.113 144.453 144.383 145.083L145.031 146.658C145.067 146.736 145.058 146.814 145.004 146.892C144.956 146.964 144.887 147 144.797 147C144.683 147 144.578 146.967 144.482 146.901C144.392 146.835 144.326 146.751 144.284 146.649L143.654 145.101C143.474 144.669 143.303 144.402 143.141 144.3C142.985 144.192 142.673 144.138 142.205 144.138H141.566C141.512 144.138 141.485 144.162 141.485 144.21V146.64C141.485 146.736 141.449 146.82 141.377 146.892ZM147.712 142.752C146.878 142.752 146.422 143.247 146.344 144.237C146.344 144.285 146.371 144.309 146.425 144.309H148.846C148.894 144.309 148.918 144.285 148.918 144.237C148.882 143.247 148.48 142.752 147.712 142.752ZM147.901 147.09C147.163 147.09 146.602 146.889 146.218 146.487C145.834 146.079 145.642 145.47 145.642 144.66C145.642 143.826 145.825 143.214 146.191 142.824C146.563 142.428 147.07 142.23 147.712 142.23C148.894 142.23 149.521 142.929 149.593 144.327C149.599 144.471 149.548 144.594 149.44 144.696C149.338 144.792 149.215 144.84 149.071 144.84H146.407C146.359 144.84 146.335 144.867 146.335 144.921C146.389 146.019 146.932 146.568 147.964 146.568C148.306 146.568 148.657 146.505 149.017 146.379C149.083 146.355 149.146 146.364 149.206 146.406C149.266 146.442 149.296 146.496 149.296 146.568C149.296 146.772 149.203 146.898 149.017 146.946C148.633 147.042 148.261 147.09 147.901 147.09ZM152.162 144.903C151.58 144.765 151.163 144.588 150.911 144.372C150.665 144.15 150.542 143.865 150.542 143.517C150.542 143.121 150.689 142.809 150.983 142.581C151.283 142.347 151.709 142.23 152.261 142.23C152.675 142.23 153.086 142.284 153.494 142.392C153.68 142.44 153.773 142.563 153.773 142.761C153.773 142.833 153.746 142.887 153.692 142.923C153.638 142.959 153.575 142.968 153.503 142.95C153.107 142.83 152.711 142.77 152.315 142.77C151.595 142.77 151.235 143.001 151.235 143.463C151.235 143.667 151.307 143.838 151.451 143.976C151.595 144.108 151.856 144.216 152.234 144.3C152.882 144.444 153.326 144.627 153.566 144.849C153.812 145.071 153.935 145.389 153.935 145.803C153.935 146.205 153.779 146.52 153.467 146.748C153.161 146.976 152.726 147.09 152.162 147.09C151.724 147.09 151.307 147.024 150.911 146.892C150.725 146.832 150.632 146.703 150.632 146.505C150.632 146.439 150.662 146.388 150.722 146.352C150.782 146.31 150.845 146.301 150.911 146.325C151.301 146.475 151.7 146.55 152.108 146.55C152.864 146.55 153.242 146.301 153.242 145.803C153.242 145.587 153.164 145.407 153.008 145.263C152.858 145.119 152.576 144.999 152.162 144.903ZM156.123 146.892C156.057 146.964 155.973 147 155.871 147C155.769 147 155.682 146.964 155.61 146.892C155.544 146.82 155.511 146.736 155.511 146.64V142.68C155.511 142.584 155.544 142.5 155.61 142.428C155.682 142.356 155.769 142.32 155.871 142.32C155.973 142.32 156.057 142.356 156.123 142.428C156.195 142.5 156.231 142.584 156.231 142.68V146.64C156.231 146.736 156.195 146.82 156.123 146.892ZM156.123 141.114C156.057 141.18 155.973 141.213 155.871 141.213C155.769 141.213 155.682 141.18 155.61 141.114C155.544 141.042 155.511 140.955 155.511 140.853V140.61C155.511 140.514 155.544 140.43 155.61 140.358C155.682 140.286 155.769 140.25 155.871 140.25C155.973 140.25 156.057 140.286 156.123 140.358C156.195 140.43 156.231 140.514 156.231 140.61V140.853C156.231 140.955 156.195 141.042 156.123 141.114ZM159.422 144.903C158.84 144.765 158.423 144.588 158.171 144.372C157.925 144.15 157.802 143.865 157.802 143.517C157.802 143.121 157.949 142.809 158.243 142.581C158.543 142.347 158.969 142.23 159.521 142.23C159.935 142.23 160.346 142.284 160.754 142.392C160.94 142.44 161.033 142.563 161.033 142.761C161.033 142.833 161.006 142.887 160.952 142.923C160.898 142.959 160.835 142.968 160.763 142.95C160.367 142.83 159.971 142.77 159.575 142.77C158.855 142.77 158.495 143.001 158.495 143.463C158.495 143.667 158.567 143.838 158.711 143.976C158.855 144.108 159.116 144.216 159.494 144.3C160.142 144.444 160.586 144.627 160.826 144.849C161.072 145.071 161.195 145.389 161.195 145.803C161.195 146.205 161.039 146.52 160.727 146.748C160.421 146.976 159.986 147.09 159.422 147.09C158.984 147.09 158.567 147.024 158.171 146.892C157.985 146.832 157.892 146.703 157.892 146.505C157.892 146.439 157.922 146.388 157.982 146.352C158.042 146.31 158.105 146.301 158.171 146.325C158.561 146.475 158.96 146.55 159.368 146.55C160.124 146.55 160.502 146.301 160.502 145.803C160.502 145.587 160.424 145.407 160.268 145.263C160.118 145.119 159.836 144.999 159.422 144.903ZM162.28 143.04C162.202 143.04 162.136 143.016 162.082 142.968C162.034 142.914 162.01 142.848 162.01 142.77C162.01 142.692 162.034 142.629 162.082 142.581C162.136 142.527 162.202 142.5 162.28 142.5H162.937C162.991 142.5 163.018 142.473 163.018 142.419V141.132C163.018 141.036 163.051 140.955 163.117 140.889C163.183 140.823 163.264 140.79 163.36 140.79C163.456 140.79 163.537 140.823 163.603 140.889C163.669 140.955 163.702 141.036 163.702 141.132V142.419C163.702 142.473 163.729 142.5 163.783 142.5H165.133C165.211 142.5 165.274 142.527 165.322 142.581C165.376 142.629 165.403 142.692 165.403 142.77C165.403 142.848 165.376 142.914 165.322 142.968C165.274 143.016 165.211 143.04 165.133 143.04H163.783C163.729 143.04 163.702 143.067 163.702 143.121V145.497C163.702 145.929 163.759 146.214 163.873 146.352C163.987 146.484 164.206 146.55 164.53 146.55C164.722 146.55 164.881 146.535 165.007 146.505C165.073 146.493 165.133 146.508 165.187 146.55C165.247 146.586 165.277 146.637 165.277 146.703C165.277 146.787 165.25 146.862 165.196 146.928C165.148 146.994 165.085 147.033 165.007 147.045C164.851 147.075 164.653 147.09 164.413 147.09C163.885 147.09 163.519 146.982 163.315 146.766C163.117 146.544 163.018 146.142 163.018 145.56V143.121C163.018 143.067 162.991 143.04 162.937 143.04H162.28ZM168.419 142.752C167.585 142.752 167.129 143.247 167.051 144.237C167.051 144.285 167.078 144.309 167.132 144.309H169.553C169.601 144.309 169.625 144.285 169.625 144.237C169.589 143.247 169.187 142.752 168.419 142.752ZM168.608 147.09C167.87 147.09 167.309 146.889 166.925 146.487C166.541 146.079 166.349 145.47 166.349 144.66C166.349 143.826 166.532 143.214 166.898 142.824C167.27 142.428 167.777 142.23 168.419 142.23C169.601 142.23 170.228 142.929 170.3 144.327C170.306 144.471 170.255 144.594 170.147 144.696C170.045 144.792 169.922 144.84 169.778 144.84H167.114C167.066 144.84 167.042 144.867 167.042 144.921C167.096 146.019 167.639 146.568 168.671 146.568C169.013 146.568 169.364 146.505 169.724 146.379C169.79 146.355 169.853 146.364 169.913 146.406C169.973 146.442 170.003 146.496 170.003 146.568C170.003 146.772 169.91 146.898 169.724 146.946C169.34 147.042 168.968 147.09 168.608 147.09ZM171.969 146.901C171.903 146.967 171.822 147 171.726 147C171.63 147 171.549 146.967 171.483 146.901C171.417 146.835 171.384 146.754 171.384 146.658V142.644C171.384 142.554 171.414 142.479 171.474 142.419C171.54 142.353 171.618 142.32 171.708 142.32C171.798 142.32 171.876 142.353 171.942 142.419C172.008 142.479 172.041 142.554 172.041 142.644V143.013C172.041 143.019 172.044 143.022 172.05 143.022C172.056 143.022 172.062 143.019 172.068 143.013C172.5 142.491 173.013 142.23 173.607 142.23C174.153 142.23 174.549 142.383 174.795 142.689C175.041 142.995 175.164 143.502 175.164 144.21V146.658C175.164 146.754 175.131 146.835 175.065 146.901C175.005 146.967 174.927 147 174.831 147C174.735 147 174.654 146.967 174.588 146.901C174.522 146.835 174.489 146.754 174.489 146.658V144.3C174.489 143.706 174.408 143.304 174.246 143.094C174.084 142.878 173.811 142.77 173.427 142.77C173.115 142.77 172.812 142.917 172.518 143.211C172.224 143.499 172.077 143.796 172.077 144.102V146.658C172.077 146.754 172.041 146.835 171.969 146.901ZM178.363 147.09C177.655 147.09 177.109 146.886 176.725 146.478C176.347 146.064 176.158 145.458 176.158 144.66C176.158 143.868 176.341 143.265 176.707 142.851C177.079 142.437 177.601 142.23 178.273 142.23C178.585 142.23 178.915 142.263 179.263 142.329C179.347 142.347 179.416 142.392 179.47 142.464C179.53 142.53 179.56 142.608 179.56 142.698C179.56 142.77 179.527 142.827 179.461 142.869C179.401 142.911 179.335 142.923 179.263 142.905C178.957 142.827 178.642 142.788 178.318 142.788C177.358 142.788 176.878 143.412 176.878 144.66C176.878 145.308 177.004 145.782 177.256 146.082C177.508 146.382 177.892 146.532 178.408 146.532C178.744 146.532 179.05 146.487 179.326 146.397C179.392 146.373 179.455 146.382 179.515 146.424C179.575 146.466 179.605 146.523 179.605 146.595C179.605 146.685 179.578 146.766 179.524 146.838C179.47 146.91 179.398 146.958 179.308 146.982C179.026 147.054 178.711 147.09 178.363 147.09ZM181.883 146.892C181.817 146.964 181.733 147 181.631 147C181.529 147 181.442 146.964 181.37 146.892C181.304 146.82 181.271 146.736 181.271 146.64V142.68C181.271 142.584 181.304 142.5 181.37 142.428C181.442 142.356 181.529 142.32 181.631 142.32C181.733 142.32 181.817 142.356 181.883 142.428C181.955 142.5 181.991 142.584 181.991 142.68V146.64C181.991 146.736 181.955 146.82 181.883 146.892ZM181.883 141.114C181.817 141.18 181.733 141.213 181.631 141.213C181.529 141.213 181.442 141.18 181.37 141.114C181.304 141.042 181.271 140.955 181.271 140.853V140.61C181.271 140.514 181.304 140.43 181.37 140.358C181.442 140.286 181.529 140.25 181.631 140.25C181.733 140.25 181.817 140.286 181.883 140.358C181.955 140.43 181.991 140.514 181.991 140.61V140.853C181.991 140.955 181.955 141.042 181.883 141.114ZM185.965 144.525C185.371 144.525 184.921 144.621 184.615 144.813C184.315 145.005 184.165 145.275 184.165 145.623C184.165 145.893 184.24 146.112 184.39 146.28C184.546 146.442 184.75 146.523 185.002 146.523C185.434 146.523 185.791 146.379 186.073 146.091C186.361 145.803 186.505 145.422 186.505 144.948V144.606C186.505 144.552 186.478 144.525 186.424 144.525H185.965ZM184.858 147.09C184.45 147.09 184.117 146.961 183.859 146.703C183.601 146.445 183.472 146.103 183.472 145.677C183.472 145.179 183.67 144.78 184.066 144.48C184.462 144.18 185.095 144.03 185.965 144.03H186.424C186.478 144.03 186.505 144.006 186.505 143.958V143.787C186.505 143.421 186.421 143.166 186.253 143.022C186.085 142.872 185.788 142.797 185.362 142.797C184.948 142.797 184.501 142.875 184.021 143.031C183.949 143.055 183.883 143.046 183.823 143.004C183.763 142.962 183.733 142.902 183.733 142.824C183.733 142.614 183.832 142.479 184.03 142.419C184.474 142.293 184.918 142.23 185.362 142.23C186.052 142.23 186.529 142.356 186.793 142.608C187.063 142.86 187.198 143.313 187.198 143.967V146.676C187.198 146.766 187.165 146.844 187.099 146.91C187.039 146.97 186.964 147 186.874 147C186.784 147 186.706 146.97 186.64 146.91C186.574 146.844 186.541 146.766 186.541 146.676L186.532 146.208C186.532 146.202 186.529 146.199 186.523 146.199C186.511 146.199 186.505 146.205 186.505 146.217C186.151 146.799 185.602 147.09 184.858 147.09Z" fill="#F2F2F2"/>
<circle cx="135" cy="135" r="64.5" stroke="#F9A750" stroke-width="3"/>
</svg>
