<svg width="100" height="100" viewBox="0 0 100 100" fill="none" xmlns="http://www.w3.org/2000/svg">
<path d="M81.8664 50C83.7561 48.1892 85.4793 46.3713 87.0072 44.5657C93.75 36.5979 95.9853 29.6494 93.301 25C91.2144 21.386 86.4591 19.6323 79.5544 19.9279C75.551 20.0994 70.9376 20.944 65.9334 22.404C65.31 19.8617 64.5972 17.46 63.7974 15.2336C60.2685 5.41 55.3683 0 50 0C46.4191 0 42.99 2.42617 40.0836 7.0166C37.6768 10.8174 35.6115 16.1138 34.0708 22.404C31.5564 21.6723 29.1189 21.0885 26.79 20.6679C16.5185 18.8121 9.38296 20.3506 6.6987 25C4.01445 29.6494 6.24977 36.5979 12.9925 44.5657C14.5204 46.3713 16.2436 48.1892 18.1334 50C16.2436 51.8109 14.5204 53.6287 12.9925 55.4343C6.24977 63.4021 4.01445 70.3506 6.6987 75C8.48913 78.1011 12.3049 79.8577 17.7334 80.0798C18.1321 80.0962 18.5389 80.1043 18.9549 80.1043C23.2289 80.1043 28.3991 79.2436 34.0657 77.5934C34.6891 80.137 35.4023 82.5396 36.2023 84.7666C39.7315 94.59 44.6317 100 50 100C55.3683 100 60.2685 94.59 63.7976 84.7664C64.5974 82.54 65.3102 80.1385 65.9336 77.596C70.9379 79.0557 75.5513 79.9006 79.5547 80.0719C80.0553 80.0934 80.5432 80.104 81.0206 80.104C87.1351 80.1038 91.3661 78.3519 93.3015 74.9998C95.9857 70.3504 93.7504 63.4019 87.0076 55.434C85.4793 53.6287 83.7561 51.8109 81.8664 50ZM90.5372 26.5957C92.4693 29.9423 90.2947 35.7406 84.571 42.5043C83.0747 44.2726 81.3815 46.0549 79.5189 47.8315C76.2479 44.9149 72.5621 42.0374 68.5634 39.2823C68.1772 34.4462 67.5291 29.8194 66.64 25.5317C78.7036 22.0013 88.0427 22.2753 90.5372 26.5957ZM50.0015 67.8894C47.3613 66.5951 44.7079 65.1811 42.1032 63.6774C39.4734 62.1591 36.9338 60.5753 34.5057 58.9457C34.3087 56.0281 34.2068 53.0368 34.2068 50C34.2068 46.9653 34.3117 43.9785 34.5106 41.0508C36.9374 39.4226 39.4751 37.84 42.1032 36.3226C44.7096 34.8179 47.3636 33.4036 50.0027 32.11C52.6272 33.3979 55.2676 34.8047 57.8966 36.3226C60.5264 37.8409 63.0659 39.4247 65.494 41.0543C65.691 43.9719 65.793 46.9632 65.793 50C65.793 53.0368 65.691 56.0279 65.494 58.9457C63.0657 60.5751 60.5264 62.1589 57.8966 63.6774C55.271 65.1932 52.6342 66.5987 50.0015 67.8894ZM31.1759 56.6323C28.1732 54.4709 25.3772 52.2466 22.8406 50C25.3785 47.7526 28.1755 45.5274 31.1798 43.3649C31.0738 45.5502 31.0153 47.7621 31.0153 50C31.0153 52.237 31.0704 54.4509 31.1759 56.6323ZM68.824 43.3677C71.8268 45.5292 74.6227 47.7534 77.1593 50C74.6227 52.2466 71.8268 54.4706 68.824 56.6323C68.9296 54.4511 68.9847 52.237 68.9847 50C68.9847 47.763 68.9296 45.5492 68.824 43.3677ZM50 3.19149C53.864 3.19149 57.7983 7.97404 60.7938 16.3126C61.5772 18.4934 62.2744 20.8523 62.8821 23.3551C60.9493 23.9947 58.9689 24.7168 56.9491 25.5243C56.1308 25.8515 55.7325 26.78 56.0598 27.5983C56.387 28.4168 57.3153 28.8149 58.1338 28.4877C59.99 27.7455 61.8093 27.08 63.5815 26.4896C64.2576 29.8068 64.7853 33.3366 65.1553 37.014C63.3191 35.8319 61.4293 34.6774 59.4921 33.5589C51.9413 29.1994 44.2753 25.7157 37.1227 23.353C40.1076 11.0547 45.0989 3.19149 50 3.19149ZM15.4289 42.5043C9.70509 35.7406 7.53062 29.9423 9.46275 26.5957C11.3947 23.2494 17.5034 22.233 26.2227 23.8083C32.3268 24.9109 39.2204 27.1779 46.3327 30.3821C44.3813 31.386 42.4315 32.4481 40.5076 33.5587C38.5734 34.6755 36.6864 35.8283 34.8527 37.0085C35.0602 34.9634 35.3123 32.9504 35.6191 30.983C35.7551 30.1121 35.1593 29.2962 34.2885 29.1604C33.4193 29.0243 32.6017 29.6202 32.4659 30.4911C32.0213 33.3411 31.6827 36.2783 31.4419 39.2785C27.441 42.0347 23.7534 44.9134 20.4808 47.8313C18.6185 46.0547 16.9251 44.2723 15.4289 42.5043ZM9.46275 73.4043C7.53062 70.0577 9.7053 64.2594 15.4289 57.4957C16.9253 55.7275 18.6185 53.9451 20.481 52.1685C23.7521 55.0851 27.4379 57.9626 31.4366 60.7177C31.823 65.5562 32.4715 70.1851 33.3613 74.4747C21.2187 78.0385 11.9134 77.6487 9.46275 73.4043ZM60.7938 83.6874C57.7983 92.026 53.864 96.8085 50 96.8085C46.1359 96.8085 42.2017 92.026 39.2062 83.6874C37.1091 77.8502 35.6257 70.747 34.8444 62.986C36.6806 64.1681 38.5704 65.3226 40.5076 66.4411C42.4293 67.5506 44.3778 68.6121 46.3287 69.6157C44.4519 70.4598 42.5808 71.2438 40.7213 71.9626C39.8993 72.2804 39.4904 73.2043 39.8083 74.0264C40.0527 74.6594 40.6568 75.0472 41.297 75.0472C41.4881 75.0472 41.6827 75.0126 41.8719 74.9396C47.6966 72.6881 53.6249 69.8289 59.4923 66.4413C61.4296 65.3228 63.3193 64.1683 65.1555 62.9862C64.7853 66.6636 64.2579 70.1936 63.5817 73.5106C61.8098 72.9204 59.9904 72.2547 58.1342 71.5128C57.3161 71.1855 56.3874 71.5836 56.0602 72.4021C55.733 73.2206 56.1313 74.1489 56.9496 74.4762C58.9691 75.2836 60.9496 76.0057 62.8823 76.6453C62.2744 79.1477 61.5774 81.5066 60.7938 83.6874ZM90.5372 73.4043C88.043 77.7245 78.704 77.9987 66.64 74.4683C67.5291 70.1804 68.1772 65.5538 68.5634 60.7177C72.5621 57.9626 76.2481 55.0853 79.5189 52.1685C81.3813 53.9453 83.0747 55.7277 84.571 57.4957C90.2949 64.2594 92.4693 70.0577 90.5372 73.4043Z" fill="#F9A750"/>
<path d="M43.2103 58.7052C42.8649 58.7052 42.5587 58.5795 42.2918 58.3283C42.0405 58.0771 41.9149 57.7709 41.9149 57.4098C41.9149 57.0487 42.0405 56.7425 42.2918 56.4913C42.5587 56.24 42.8649 56.1144 43.2103 56.1144H44.7883C44.804 56.1144 44.8118 56.1066 44.8118 56.0909C44.8118 56.0595 44.804 56.0438 44.7883 56.0438C43.0297 54.5364 42.1504 52.3225 42.1504 49.4021C42.1504 46.8428 42.8491 44.8487 44.2466 43.4199C45.6597 41.991 47.5753 41.2766 49.9933 41.2766C52.4113 41.2766 54.319 41.991 55.7164 43.4199C57.1296 44.8487 57.8361 46.8428 57.8361 49.4021C57.8361 52.3225 56.9569 54.5364 55.1983 56.0438C55.1826 56.0438 55.1747 56.0595 55.1747 56.0909C55.1747 56.1066 55.1826 56.1144 55.1983 56.1144H56.7763C57.1217 56.1144 57.42 56.24 57.6713 56.4913C57.9382 56.7425 58.0716 57.0487 58.0716 57.4098C58.0716 57.7709 57.9382 58.0771 57.6713 58.3283C57.42 58.5795 57.1217 58.7052 56.7763 58.7052H52.1836C51.8225 58.7052 51.5163 58.5795 51.2651 58.3283C51.0139 58.0771 50.8883 57.7709 50.8883 57.4098C50.8883 56.766 51.2886 56.1772 52.0894 55.6434C52.796 55.1723 53.3691 54.4501 53.8087 53.4766C54.2484 52.4874 54.4682 51.3412 54.4682 50.038C54.4682 46.0027 52.9765 43.9851 49.9933 43.9851C47.01 43.9851 45.5184 46.0027 45.5184 50.038C45.5184 51.3412 45.7382 52.4874 46.1778 53.4766C46.6175 54.4501 47.1906 55.1723 47.8971 55.6434C48.6979 56.1772 49.0983 56.766 49.0983 57.4098C49.0983 57.7709 48.9727 58.0771 48.7215 58.3283C48.4702 58.5795 48.1641 58.7052 47.8029 58.7052H43.2103Z" fill="#F9A750"/>
</svg>
