<svg width="200" height="200" viewBox="0 0 200 200" fill="none" xmlns="http://www.w3.org/2000/svg">
<circle cx="100" cy="100" r="100" fill="#393C4C"/>
<path d="M95.2375 152.917C94.6793 152.916 94.1254 152.819 93.6006 152.628C92.5884 152.257 91.7298 151.558 91.1624 150.641C90.595 149.725 90.3517 148.644 90.4713 147.573L94.1784 113.439H65.8216C64.947 113.44 64.0886 113.203 63.3385 112.754C62.5884 112.304 61.975 111.658 61.5641 110.886C61.1533 110.114 60.9606 109.244 61.0067 108.371C61.0528 107.498 61.3359 106.653 61.8257 105.929L99.8112 49.1188C100.412 48.2298 101.293 47.5669 102.313 47.2355C103.334 46.904 104.436 46.923 105.444 47.2893C106.414 47.6493 107.241 48.3118 107.805 49.1789C108.369 50.046 108.638 51.0716 108.573 52.1037L104.866 86.4784H133.223C134.098 86.4771 134.956 86.7141 135.706 87.1639C136.456 87.6137 137.07 88.2593 137.481 89.0314C137.891 89.8036 138.084 90.673 138.038 91.5465C137.992 92.4199 137.709 93.2642 137.219 93.9889L99.2335 150.799C98.7918 151.452 98.1965 151.987 97.4997 152.356C96.803 152.726 96.0261 152.918 95.2375 152.917Z" fill="#F9A750"/>
</svg>
