<svg width="100" height="100" viewBox="0 0 100 100" fill="none" xmlns="http://www.w3.org/2000/svg">
<path d="M63.4391 42.6122C63.1344 41.0948 61.7937 40 60.1586 40H14.75C13.2012 40 11.8666 41.0948 11.563 42.6122L5.15437 75.1122C4.96231 76.0675 5.20991 77.0581 5.82722 77.8097C6.44453 78.5612 7.27601 79 8.24999 79H34.1586V85.5254H29.3547C26.6876 85.5254 24.5051 87.708 24.5051 90.375C24.5051 91.2732 25.2331 92.001 26.1311 92L48.7897 91.9831C49.6863 91.9821 50.4137 91.2549 50.4137 90.3581C50.4086 87.6836 48.3266 85.5 45.6453 85.5H40.7419V79H66.7419C67.7163 79 68.638 78.5621 69.2555 77.8097C69.873 77.0573 70.1204 76.0669 69.9284 75.1122L63.4391 42.6122ZM57.5891 46.5L59.5391 56.25H49.588L48.5906 46.5H57.5891ZM43.6039 46.5L44.5806 56.25H30.3906L31.3933 46.5H43.6039ZM26.4094 46.5L25.4141 56.25H15.4711L17.4191 46.5H26.4094ZM12.2272 72.5L14.49 61.125H24.9205L23.7484 72.5H12.2272ZM28.7453 72.5L29.9001 61.125H45.104L46.2547 72.5H28.7453ZM51.2516 72.5L50.0836 61.125H60.5141L62.7769 72.5H51.2516Z" fill="#F9A750"/>
<path d="M95 35.5C95 49.4803 84.5678 61.0241 71.0633 62.7713L66.4391 39.6122C66.1344 38.0948 64.7937 37 63.1586 37H40.0402C40.0135 36.5034 40 36.0033 40 35.5C40 20.3122 52.3122 8 67.5 8C82.6878 8 95 20.3122 95 35.5Z" fill="#F9A750"/>
</svg>
